<svg xmlns="http://www.w3.org/2000/svg" xmlns:xlink="http://www.w3.org/1999/xlink" width="350" zoomAndPan="magnify" viewBox="0 0 262.5 262.500001" height="350" preserveAspectRatio="xMidYMid meet" version="1.0"><defs><clipPath id="1e6e65b2a7"><path d="M 21 234 L 36 234 L 36 251 L 21 251 Z M 21 234 " clip-rule="nonzero"/></clipPath><clipPath id="0549ea2d96"><path d="M 21.027344 221.089844 L 60.550781 258.980469 L 31.488281 289.296875 L -8.035156 251.410156 Z M 21.027344 221.089844 " clip-rule="nonzero"/></clipPath><clipPath id="8d11ab3485"><path d="M 21.027344 221.089844 L 60.550781 258.980469 L 31.488281 289.296875 L -8.035156 251.410156 Z M 21.027344 221.089844 " clip-rule="nonzero"/></clipPath><clipPath id="cb0676f5d4"><path d="M 31 245 L 48 245 L 48 261 L 31 261 Z M 31 245 " clip-rule="nonzero"/></clipPath><clipPath id="ff07b4a5ec"><path d="M 21.027344 221.089844 L 60.550781 258.980469 L 31.488281 289.296875 L -8.035156 251.410156 Z M 21.027344 221.089844 " clip-rule="nonzero"/></clipPath><clipPath id="de8a427198"><path d="M 21.027344 221.089844 L 60.550781 258.980469 L 31.488281 289.296875 L -8.035156 251.410156 Z M 21.027344 221.089844 " clip-rule="nonzero"/></clipPath><clipPath id="6ad7f53d80"><path d="M 6 233 L 20 233 L 20 250 L 6 250 Z M 6 233 " clip-rule="nonzero"/></clipPath><clipPath id="41140ff1ce"><path d="M 21.027344 221.089844 L 60.550781 258.980469 L 31.488281 289.296875 L -8.035156 251.410156 Z M 21.027344 221.089844 " clip-rule="nonzero"/></clipPath><clipPath id="1e7f36109c"><path d="M 21.027344 221.089844 L 60.550781 258.980469 L 31.488281 289.296875 L -8.035156 251.410156 Z M 21.027344 221.089844 " clip-rule="nonzero"/></clipPath><clipPath id="67f1247b39"><path d="M 33 261 L 50 261 L 50 262 L 33 262 Z M 33 261 " clip-rule="nonzero"/></clipPath><clipPath id="7ba1877367"><path d="M 21.027344 221.089844 L 60.550781 258.980469 L 31.488281 289.296875 L -8.035156 251.410156 Z M 21.027344 221.089844 " clip-rule="nonzero"/></clipPath><clipPath id="f95a1978be"><path d="M 21.027344 221.089844 L 60.550781 258.980469 L 31.488281 289.296875 L -8.035156 251.410156 Z M 21.027344 221.089844 " clip-rule="nonzero"/></clipPath><clipPath id="0059cd9803"><path d="M 40.964844 257.949219 L 51.699219 268.238281 L 41.261719 279.128906 L 30.527344 268.835938 Z M 40.964844 257.949219 " clip-rule="nonzero"/></clipPath><clipPath id="d181bc11a5"><path d="M 40.964844 257.949219 L 51.6875 268.226562 L 41.25 279.117188 L 30.527344 268.835938 Z M 40.964844 257.949219 " clip-rule="nonzero"/></clipPath><clipPath id="b829409d6f"><path d="M 5 251 L 32 251 L 32 262 L 5 262 Z M 5 251 " clip-rule="nonzero"/></clipPath><clipPath id="a24e667099"><path d="M 21.027344 221.089844 L 60.550781 258.980469 L 31.488281 289.296875 L -8.035156 251.410156 Z M 21.027344 221.089844 " clip-rule="nonzero"/></clipPath><clipPath id="0a8ee272dc"><path d="M 21.027344 221.089844 L 60.550781 258.980469 L 31.488281 289.296875 L -8.035156 251.410156 Z M 21.027344 221.089844 " clip-rule="nonzero"/></clipPath><clipPath id="da81d37cb7"><path d="M 17.691406 246.347656 L 36.207031 264.097656 L 21.359375 279.582031 L 2.847656 261.835938 Z M 17.691406 246.347656 " clip-rule="nonzero"/></clipPath><clipPath id="051c895a67"><path d="M 17.691406 246.347656 L 36.207031 264.097656 L 21.359375 279.582031 L 2.847656 261.835938 Z M 17.691406 246.347656 " clip-rule="nonzero"/></clipPath><clipPath id="7c78cec732"><path d="M 47 144 L 62 144 L 62 161 L 47 161 Z M 47 144 " clip-rule="nonzero"/></clipPath><clipPath id="461de753d8"><path d="M 46.863281 131.25 L 86.386719 169.136719 L 57.320312 199.457031 L 17.796875 161.570312 Z M 46.863281 131.25 " clip-rule="nonzero"/></clipPath><clipPath id="65e67a7a70"><path d="M 46.863281 131.25 L 86.386719 169.136719 L 57.320312 199.457031 L 17.796875 161.570312 Z M 46.863281 131.25 " clip-rule="nonzero"/></clipPath><clipPath id="467e4032c3"><path d="M 57 156 L 74 156 L 74 171 L 57 171 Z M 57 156 " clip-rule="nonzero"/></clipPath><clipPath id="ebeb6d6459"><path d="M 46.863281 131.25 L 86.386719 169.136719 L 57.320312 199.457031 L 17.796875 161.570312 Z M 46.863281 131.25 " clip-rule="nonzero"/></clipPath><clipPath id="18b7e3c6f0"><path d="M 46.863281 131.25 L 86.386719 169.136719 L 57.320312 199.457031 L 17.796875 161.570312 Z M 46.863281 131.25 " clip-rule="nonzero"/></clipPath><clipPath id="c82df052fc"><path d="M 32 143 L 46 143 L 46 160 L 32 160 Z M 32 143 " clip-rule="nonzero"/></clipPath><clipPath id="f6de8c3650"><path d="M 46.863281 131.25 L 86.386719 169.136719 L 57.320312 199.457031 L 17.796875 161.570312 Z M 46.863281 131.25 " clip-rule="nonzero"/></clipPath><clipPath id="656d9e5675"><path d="M 46.863281 131.25 L 86.386719 169.136719 L 57.320312 199.457031 L 17.796875 161.570312 Z M 46.863281 131.25 " clip-rule="nonzero"/></clipPath><clipPath id="043b1cc5c5"><path d="M 58 171 L 76 171 L 76 186 L 58 186 Z M 58 171 " clip-rule="nonzero"/></clipPath><clipPath id="a49d031987"><path d="M 46.863281 131.25 L 86.386719 169.136719 L 57.320312 199.457031 L 17.796875 161.570312 Z M 46.863281 131.25 " clip-rule="nonzero"/></clipPath><clipPath id="dba85a70ff"><path d="M 46.863281 131.25 L 86.386719 169.136719 L 57.320312 199.457031 L 17.796875 161.570312 Z M 46.863281 131.25 " clip-rule="nonzero"/></clipPath><clipPath id="e4c77065ee"><path d="M 66.800781 168.105469 L 77.535156 178.398438 L 67.097656 189.285156 L 56.359375 178.996094 Z M 66.800781 168.105469 " clip-rule="nonzero"/></clipPath><clipPath id="13c14e7730"><path d="M 66.800781 168.105469 L 77.523438 178.382812 L 67.082031 189.273438 L 56.359375 178.996094 Z M 66.800781 168.105469 " clip-rule="nonzero"/></clipPath><clipPath id="a07be0dfa3"><path d="M 31 161 L 57 161 L 57 188 L 31 188 Z M 31 161 " clip-rule="nonzero"/></clipPath><clipPath id="e97cb0ec31"><path d="M 46.863281 131.25 L 86.386719 169.136719 L 57.320312 199.457031 L 17.796875 161.570312 Z M 46.863281 131.25 " clip-rule="nonzero"/></clipPath><clipPath id="b3d25d6db9"><path d="M 46.863281 131.25 L 86.386719 169.136719 L 57.320312 199.457031 L 17.796875 161.570312 Z M 46.863281 131.25 " clip-rule="nonzero"/></clipPath><clipPath id="2f4adb05f1"><path d="M 43.523438 156.507812 L 62.039062 174.253906 L 47.195312 189.742188 L 28.679688 171.992188 Z M 43.523438 156.507812 " clip-rule="nonzero"/></clipPath><clipPath id="9721ad1dfe"><path d="M 43.523438 156.507812 L 62.039062 174.253906 L 47.195312 189.742188 L 28.679688 171.992188 Z M 43.523438 156.507812 " clip-rule="nonzero"/></clipPath><clipPath id="78b0cf6588"><path d="M 138 144 L 153 144 L 153 161 L 138 161 Z M 138 144 " clip-rule="nonzero"/></clipPath><clipPath id="636c330159"><path d="M 137.347656 131.25 L 176.871094 169.136719 L 147.808594 199.457031 L 108.285156 161.570312 Z M 137.347656 131.25 " clip-rule="nonzero"/></clipPath><clipPath id="b852f61cbf"><path d="M 137.347656 131.25 L 176.871094 169.136719 L 147.808594 199.457031 L 108.285156 161.570312 Z M 137.347656 131.25 " clip-rule="nonzero"/></clipPath><clipPath id="be9f3a256b"><path d="M 148 156 L 164 156 L 164 171 L 148 171 Z M 148 156 " clip-rule="nonzero"/></clipPath><clipPath id="07ff890033"><path d="M 137.347656 131.25 L 176.871094 169.136719 L 147.808594 199.457031 L 108.285156 161.570312 Z M 137.347656 131.25 " clip-rule="nonzero"/></clipPath><clipPath id="3d48a455ca"><path d="M 137.347656 131.25 L 176.871094 169.136719 L 147.808594 199.457031 L 108.285156 161.570312 Z M 137.347656 131.25 " clip-rule="nonzero"/></clipPath><clipPath id="be44dc861b"><path d="M 122 143 L 137 143 L 137 160 L 122 160 Z M 122 143 " clip-rule="nonzero"/></clipPath><clipPath id="dbec023f16"><path d="M 137.347656 131.25 L 176.871094 169.136719 L 147.808594 199.457031 L 108.285156 161.570312 Z M 137.347656 131.25 " clip-rule="nonzero"/></clipPath><clipPath id="bb4634de26"><path d="M 137.347656 131.25 L 176.871094 169.136719 L 147.808594 199.457031 L 108.285156 161.570312 Z M 137.347656 131.25 " clip-rule="nonzero"/></clipPath><clipPath id="94d0933f7b"><path d="M 149 171 L 166 171 L 166 186 L 149 186 Z M 149 171 " clip-rule="nonzero"/></clipPath><clipPath id="c118cfab9c"><path d="M 137.347656 131.25 L 176.871094 169.136719 L 147.808594 199.457031 L 108.285156 161.570312 Z M 137.347656 131.25 " clip-rule="nonzero"/></clipPath><clipPath id="92db670676"><path d="M 137.347656 131.25 L 176.871094 169.136719 L 147.808594 199.457031 L 108.285156 161.570312 Z M 137.347656 131.25 " clip-rule="nonzero"/></clipPath><clipPath id="8719c97591"><path d="M 157.285156 168.105469 L 168.019531 178.398438 L 157.582031 189.285156 L 146.847656 178.996094 Z M 157.285156 168.105469 " clip-rule="nonzero"/></clipPath><clipPath id="de2ed1479d"><path d="M 157.285156 168.105469 L 168.007812 178.382812 L 157.570312 189.273438 L 146.847656 178.996094 Z M 157.285156 168.105469 " clip-rule="nonzero"/></clipPath><clipPath id="a9f44b73b8"><path d="M 121 161 L 148 161 L 148 188 L 121 188 Z M 121 161 " clip-rule="nonzero"/></clipPath><clipPath id="ca8ed5f0b9"><path d="M 137.347656 131.25 L 176.871094 169.136719 L 147.808594 199.457031 L 108.285156 161.570312 Z M 137.347656 131.25 " clip-rule="nonzero"/></clipPath><clipPath id="3af56aca4c"><path d="M 137.347656 131.25 L 176.871094 169.136719 L 147.808594 199.457031 L 108.285156 161.570312 Z M 137.347656 131.25 " clip-rule="nonzero"/></clipPath><clipPath id="e2549937e0"><path d="M 134.011719 156.507812 L 152.523438 174.253906 L 137.679688 189.742188 L 119.164062 171.992188 Z M 134.011719 156.507812 " clip-rule="nonzero"/></clipPath><clipPath id="31ac32570d"><path d="M 134.011719 156.507812 L 152.523438 174.253906 L 137.679688 189.742188 L 119.167969 171.992188 Z M 134.011719 156.507812 " clip-rule="nonzero"/></clipPath><clipPath id="4e3c417a12"><path d="M 129 39 L 144 39 L 144 56 L 129 56 Z M 129 39 " clip-rule="nonzero"/></clipPath><clipPath id="0302ee1bb9"><path d="M 126.34375 27.148438 L 170.222656 59.894531 L 145.105469 93.554688 L 101.226562 60.8125 Z M 126.34375 27.148438 " clip-rule="nonzero"/></clipPath><clipPath id="e3e73d9a19"><path d="M 126.34375 27.148438 L 170.222656 59.894531 L 145.105469 93.554688 L 101.226562 60.8125 Z M 126.34375 27.148438 " clip-rule="nonzero"/></clipPath><clipPath id="64380cb5c3"><path d="M 141 49 L 157 49 L 157 64 L 141 64 Z M 141 49 " clip-rule="nonzero"/></clipPath><clipPath id="c2d6419599"><path d="M 126.34375 27.148438 L 170.222656 59.894531 L 145.105469 93.554688 L 101.226562 60.8125 Z M 126.34375 27.148438 " clip-rule="nonzero"/></clipPath><clipPath id="2712fa6785"><path d="M 126.34375 27.148438 L 170.222656 59.894531 L 145.105469 93.554688 L 101.226562 60.8125 Z M 126.34375 27.148438 " clip-rule="nonzero"/></clipPath><clipPath id="57b1869734"><path d="M 114 40 L 128 40 L 128 57 L 114 57 Z M 114 40 " clip-rule="nonzero"/></clipPath><clipPath id="275b83339a"><path d="M 126.34375 27.148438 L 170.222656 59.894531 L 145.105469 93.554688 L 101.226562 60.8125 Z M 126.34375 27.148438 " clip-rule="nonzero"/></clipPath><clipPath id="f214bbb05d"><path d="M 126.34375 27.148438 L 170.222656 59.894531 L 145.105469 93.554688 L 101.226562 60.8125 Z M 126.34375 27.148438 " clip-rule="nonzero"/></clipPath><clipPath id="66a5cb883b"><path d="M 144 64 L 161 64 L 161 79 L 144 79 Z M 144 64 " clip-rule="nonzero"/></clipPath><clipPath id="661e7dcb5f"><path d="M 126.34375 27.148438 L 170.222656 59.894531 L 145.105469 93.554688 L 101.226562 60.8125 Z M 126.34375 27.148438 " clip-rule="nonzero"/></clipPath><clipPath id="65a43a6479"><path d="M 126.34375 27.148438 L 170.222656 59.894531 L 145.105469 93.554688 L 101.226562 60.8125 Z M 126.34375 27.148438 " clip-rule="nonzero"/></clipPath><clipPath id="db63792f58"><path d="M 150.660156 61.277344 L 162.578125 70.171875 L 153.554688 82.257812 L 141.636719 73.367188 Z M 150.660156 61.277344 " clip-rule="nonzero"/></clipPath><clipPath id="a8469309dc"><path d="M 150.660156 61.277344 L 162.5625 70.160156 L 153.542969 82.25 L 141.636719 73.367188 Z M 150.660156 61.277344 " clip-rule="nonzero"/></clipPath><clipPath id="aca82637df"><path d="M 115 57 L 142 57 L 142 83 L 115 83 Z M 115 57 " clip-rule="nonzero"/></clipPath><clipPath id="f4a3e5af34"><path d="M 126.34375 27.148438 L 170.222656 59.894531 L 145.105469 93.554688 L 101.226562 60.8125 Z M 126.34375 27.148438 " clip-rule="nonzero"/></clipPath><clipPath id="1b93d9426b"><path d="M 126.34375 27.148438 L 170.222656 59.894531 L 145.105469 93.554688 L 101.226562 60.8125 Z M 126.34375 27.148438 " clip-rule="nonzero"/></clipPath><clipPath id="fe8e1682b3"><path d="M 126.136719 52.625 L 146.691406 67.964844 L 133.859375 85.15625 L 113.304688 69.820312 Z M 126.136719 52.625 " clip-rule="nonzero"/></clipPath><clipPath id="7d66347c73"><path d="M 126.136719 52.625 L 146.691406 67.964844 L 133.863281 85.15625 L 113.308594 69.816406 Z M 126.136719 52.625 " clip-rule="nonzero"/></clipPath><clipPath id="ceccb075f7"><path d="M 222 26 L 236 26 L 236 42 L 222 42 Z M 222 26 " clip-rule="nonzero"/></clipPath><clipPath id="aa9ec40933"><path d="M 218.644531 13.757812 L 262.523438 46.5 L 237.40625 80.160156 L 193.527344 47.417969 Z M 218.644531 13.757812 " clip-rule="nonzero"/></clipPath><clipPath id="3bab953008"><path d="M 218.644531 13.757812 L 262.523438 46.5 L 237.40625 80.160156 L 193.527344 47.417969 Z M 218.644531 13.757812 " clip-rule="nonzero"/></clipPath><clipPath id="2eeba0f729"><path d="M 233 35 L 249 35 L 249 51 L 233 51 Z M 233 35 " clip-rule="nonzero"/></clipPath><clipPath id="079e2b252c"><path d="M 218.644531 13.757812 L 262.523438 46.5 L 237.40625 80.160156 L 193.527344 47.417969 Z M 218.644531 13.757812 " clip-rule="nonzero"/></clipPath><clipPath id="f0a387f45a"><path d="M 218.644531 13.757812 L 262.523438 46.5 L 237.40625 80.160156 L 193.527344 47.417969 Z M 218.644531 13.757812 " clip-rule="nonzero"/></clipPath><clipPath id="93237162c7"><path d="M 206 26 L 221 26 L 221 43 L 206 43 Z M 206 26 " clip-rule="nonzero"/></clipPath><clipPath id="eb55ab9b7f"><path d="M 218.644531 13.757812 L 262.523438 46.5 L 237.40625 80.160156 L 193.527344 47.417969 Z M 218.644531 13.757812 " clip-rule="nonzero"/></clipPath><clipPath id="3bff2d8047"><path d="M 218.644531 13.757812 L 262.523438 46.5 L 237.40625 80.160156 L 193.527344 47.417969 Z M 218.644531 13.757812 " clip-rule="nonzero"/></clipPath><clipPath id="7405dcc95c"><path d="M 236 51 L 253 51 L 253 66 L 236 66 Z M 236 51 " clip-rule="nonzero"/></clipPath><clipPath id="1eb98ae86e"><path d="M 218.644531 13.757812 L 262.523438 46.5 L 237.40625 80.160156 L 193.527344 47.417969 Z M 218.644531 13.757812 " clip-rule="nonzero"/></clipPath><clipPath id="fce1f5024e"><path d="M 218.644531 13.757812 L 262.523438 46.5 L 237.40625 80.160156 L 193.527344 47.417969 Z M 218.644531 13.757812 " clip-rule="nonzero"/></clipPath><clipPath id="b6fb8459e4"><path d="M 242.960938 47.882812 L 254.878906 56.777344 L 245.855469 68.867188 L 233.9375 59.972656 Z M 242.960938 47.882812 " clip-rule="nonzero"/></clipPath><clipPath id="5986b9b62f"><path d="M 242.960938 47.882812 L 254.863281 56.765625 L 245.84375 68.855469 L 233.9375 59.972656 Z M 242.960938 47.882812 " clip-rule="nonzero"/></clipPath><clipPath id="ad0674e3a2"><path d="M 208 44 L 235 44 L 235 70 L 208 70 Z M 208 44 " clip-rule="nonzero"/></clipPath><clipPath id="01e5aee29f"><path d="M 218.644531 13.757812 L 262.523438 46.5 L 237.40625 80.160156 L 193.527344 47.417969 Z M 218.644531 13.757812 " clip-rule="nonzero"/></clipPath><clipPath id="8d15538891"><path d="M 218.644531 13.757812 L 262.523438 46.5 L 237.40625 80.160156 L 193.527344 47.417969 Z M 218.644531 13.757812 " clip-rule="nonzero"/></clipPath><clipPath id="b6ece6e965"><path d="M 218.4375 39.234375 L 238.992188 54.570312 L 226.160156 71.765625 L 205.605469 56.425781 Z M 218.4375 39.234375 " clip-rule="nonzero"/></clipPath><clipPath id="fc0482d09f"><path d="M 218.4375 39.234375 L 238.992188 54.570312 L 226.160156 71.761719 L 205.605469 56.425781 Z M 218.4375 39.234375 " clip-rule="nonzero"/></clipPath></defs><g clip-path="url(#1e6e65b2a7)"><g clip-path="url(#0549ea2d96)"><g clip-path="url(#8d11ab3485)"><path fill="#ffffff" d="M 33.105469 235.921875 C 41.085938 241.675781 29.582031 254.8125 23.367188 248.269531 C 18.371094 243.011719 26.171875 230.917969 33.105469 235.921875 " fill-opacity="1" fill-rule="evenodd"/></g></g></g><g clip-path="url(#cb0676f5d4)"><g clip-path="url(#ff07b4a5ec)"><g clip-path="url(#de8a427198)"><path fill="#ffffff" d="M 44.410156 246.757812 C 53.777344 252.492188 39.6875 265.382812 33.214844 257.710938 C 28.089844 251.636719 38.417969 243.085938 44.410156 246.757812 " fill-opacity="1" fill-rule="evenodd"/></g></g></g><g clip-path="url(#6ad7f53d80)"><g clip-path="url(#41140ff1ce)"><g clip-path="url(#1e7f36109c)"><path fill="#ffffff" d="M 16.050781 248.601562 C 7.535156 251.972656 3.210938 239.679688 9.859375 234.621094 C 16.863281 229.292969 25.023438 243.253906 16.050781 248.601562 " fill-opacity="1" fill-rule="evenodd"/></g></g></g><g clip-path="url(#67f1247b39)"><g clip-path="url(#7ba1877367)"><g clip-path="url(#f95a1978be)"><g clip-path="url(#0059cd9803)"><g clip-path="url(#d181bc11a5)"><path fill="#ffffff" d="M 46.007812 262.980469 C 48.15625 264.367188 49.804688 267.179688 49.183594 269.519531 C 47.472656 275.976562 38.226562 277.011719 34.421875 272.507812 C 32.332031 270.035156 32.886719 266.769531 34.4375 264.828125 C 37.761719 260.667969 42.785156 260.898438 46.007812 262.980469 " fill-opacity="1" fill-rule="evenodd"/></g></g></g></g></g><g clip-path="url(#b829409d6f)"><g clip-path="url(#a24e667099)"><g clip-path="url(#0a8ee272dc)"><g clip-path="url(#da81d37cb7)"><g clip-path="url(#051c895a67)"><path fill="#ffffff" d="M 24.910156 253.597656 C 32.355469 258.621094 33.808594 268.84375 25.019531 275.386719 C 23.199219 276.738281 19.617188 277.691406 17.527344 275.898438 C 15.835938 274.457031 15.457031 271.101562 13.453125 269.199219 C 10.964844 266.835938 6.910156 267.160156 5.660156 263.824219 C 4.609375 261.023438 7.449219 256.484375 10.453125 254.078125 C 14.78125 250.613281 20.425781 250.570312 24.910156 253.597656 " fill-opacity="1" fill-rule="evenodd"/></g></g></g></g></g><g clip-path="url(#7c78cec732)"><g clip-path="url(#461de753d8)"><g clip-path="url(#65e67a7a70)"><path fill="#ffffff" d="M 58.941406 146.078125 C 66.917969 151.835938 55.417969 164.972656 49.203125 158.429688 C 44.203125 153.167969 52.007812 141.074219 58.941406 146.078125 " fill-opacity="1" fill-rule="evenodd"/></g></g></g><g clip-path="url(#467e4032c3)"><g clip-path="url(#ebeb6d6459)"><g clip-path="url(#18b7e3c6f0)"><path fill="#ffffff" d="M 70.246094 156.917969 C 79.613281 162.652344 65.523438 175.542969 59.046875 167.867188 C 53.925781 161.792969 64.253906 153.246094 70.246094 156.917969 " fill-opacity="1" fill-rule="evenodd"/></g></g></g><g clip-path="url(#c82df052fc)"><g clip-path="url(#f6de8c3650)"><g clip-path="url(#656d9e5675)"><path fill="#ffffff" d="M 41.886719 158.761719 C 33.367188 162.132812 29.042969 149.835938 35.695312 144.78125 C 42.695312 139.453125 50.855469 153.414062 41.886719 158.761719 " fill-opacity="1" fill-rule="evenodd"/></g></g></g><g clip-path="url(#043b1cc5c5)"><g clip-path="url(#a49d031987)"><g clip-path="url(#dba85a70ff)"><g clip-path="url(#e4c77065ee)"><g clip-path="url(#13c14e7730)"><path fill="#ffffff" d="M 71.84375 173.136719 C 73.992188 174.523438 75.640625 177.339844 75.019531 179.679688 C 73.304688 186.136719 64.0625 187.171875 60.257812 182.667969 C 58.167969 180.195312 58.71875 176.929688 60.273438 174.988281 C 63.597656 170.828125 68.621094 171.058594 71.84375 173.136719 " fill-opacity="1" fill-rule="evenodd"/></g></g></g></g></g><g clip-path="url(#a07be0dfa3)"><g clip-path="url(#e97cb0ec31)"><g clip-path="url(#b3d25d6db9)"><g clip-path="url(#2f4adb05f1)"><g clip-path="url(#9721ad1dfe)"><path fill="#ffffff" d="M 50.746094 163.753906 C 58.1875 168.777344 59.644531 179.003906 50.851562 185.542969 C 49.03125 186.898438 45.453125 187.847656 43.359375 186.058594 C 41.671875 184.613281 41.292969 181.257812 39.289062 179.355469 C 36.800781 176.992188 32.742188 177.316406 31.492188 173.980469 C 30.441406 171.179688 33.28125 166.640625 36.285156 164.238281 C 40.617188 160.769531 46.257812 160.726562 50.746094 163.753906 " fill-opacity="1" fill-rule="evenodd"/></g></g></g></g></g><g clip-path="url(#78b0cf6588)"><g clip-path="url(#636c330159)"><g clip-path="url(#b852f61cbf)"><path fill="#ffffff" d="M 149.425781 146.078125 C 157.40625 151.835938 145.902344 164.972656 139.6875 158.429688 C 134.691406 153.167969 142.492188 141.074219 149.425781 146.078125 " fill-opacity="1" fill-rule="evenodd"/></g></g></g><g clip-path="url(#be9f3a256b)"><g clip-path="url(#07ff890033)"><g clip-path="url(#3d48a455ca)"><path fill="#ffffff" d="M 160.730469 156.917969 C 170.097656 162.652344 156.007812 175.542969 149.535156 167.867188 C 144.410156 161.792969 154.738281 153.246094 160.730469 156.917969 " fill-opacity="1" fill-rule="evenodd"/></g></g></g><g clip-path="url(#be44dc861b)"><g clip-path="url(#dbec023f16)"><g clip-path="url(#bb4634de26)"><path fill="#ffffff" d="M 132.371094 158.761719 C 123.855469 162.132812 119.53125 149.835938 126.179688 144.78125 C 133.183594 139.453125 141.34375 153.414062 132.371094 158.761719 " fill-opacity="1" fill-rule="evenodd"/></g></g></g><g clip-path="url(#94d0933f7b)"><g clip-path="url(#c118cfab9c)"><g clip-path="url(#92db670676)"><g clip-path="url(#8719c97591)"><g clip-path="url(#de2ed1479d)"><path fill="#ffffff" d="M 162.328125 173.136719 C 164.476562 174.523438 166.125 177.339844 165.503906 179.679688 C 163.792969 186.136719 154.546875 187.171875 150.742188 182.667969 C 148.652344 180.195312 149.207031 176.929688 150.757812 174.988281 C 154.082031 170.828125 159.105469 171.058594 162.328125 173.136719 " fill-opacity="1" fill-rule="evenodd"/></g></g></g></g></g><g clip-path="url(#a9f44b73b8)"><g clip-path="url(#ca8ed5f0b9)"><g clip-path="url(#3af56aca4c)"><g clip-path="url(#e2549937e0)"><g clip-path="url(#31ac32570d)"><path fill="#ffffff" d="M 141.230469 163.753906 C 148.675781 168.777344 150.128906 179.003906 141.339844 185.542969 C 139.519531 186.898438 135.9375 187.847656 133.847656 186.058594 C 132.15625 184.613281 131.777344 181.257812 129.773438 179.355469 C 127.285156 176.992188 123.230469 177.316406 121.976562 173.980469 C 120.929688 171.179688 123.769531 166.640625 126.773438 164.238281 C 131.101562 160.769531 136.746094 160.726562 141.230469 163.753906 " fill-opacity="1" fill-rule="evenodd"/></g></g></g></g></g><g clip-path="url(#4e3c417a12)"><g clip-path="url(#0302ee1bb9)"><g clip-path="url(#e3e73d9a19)"><path fill="#ffffff" d="M 140.152344 40.382812 C 148.777344 45.113281 138.980469 59.566406 132.003906 53.835938 C 126.398438 49.226562 132.65625 36.269531 140.152344 40.382812 " fill-opacity="1" fill-rule="evenodd"/></g></g></g><g clip-path="url(#64380cb5c3)"><g clip-path="url(#c2d6419599)"><g clip-path="url(#2712fa6785)"><path fill="#ffffff" d="M 152.703125 49.746094 C 162.707031 54.289062 150.304688 68.8125 142.9375 61.992188 C 137.105469 56.59375 146.304688 46.839844 152.703125 49.746094 " fill-opacity="1" fill-rule="evenodd"/></g></g></g><g clip-path="url(#57b1869734)"><g clip-path="url(#275b83339a)"><g clip-path="url(#f214bbb05d)"><path fill="#ffffff" d="M 124.785156 55.0625 C 116.746094 59.457031 110.945312 47.785156 116.921875 41.949219 C 123.21875 35.800781 133.03125 48.652344 124.785156 55.0625 " fill-opacity="1" fill-rule="evenodd"/></g></g></g><g clip-path="url(#66a5cb883b)"><g clip-path="url(#661e7dcb5f)"><g clip-path="url(#65a43a6479)"><g clip-path="url(#db63792f58)"><g clip-path="url(#a8469309dc)"><path fill="#ffffff" d="M 156.28125 65.648438 C 158.585938 66.761719 160.566406 69.351562 160.238281 71.75 C 159.332031 78.371094 150.285156 80.535156 145.957031 76.53125 C 143.578125 74.335938 143.726562 71.027344 145.027344 68.90625 C 147.816406 64.371094 152.828125 63.980469 156.28125 65.648438 " fill-opacity="1" fill-rule="evenodd"/></g></g></g></g></g><g clip-path="url(#aca82637df)"><g clip-path="url(#f4a3e5af34)"><g clip-path="url(#1b93d9426b)"><g clip-path="url(#fe8e1682b3)"><g clip-path="url(#7d66347c73)"><path fill="#ffffff" d="M 134.191406 58.929688 C 142.195312 63 144.894531 72.96875 136.976562 80.542969 C 135.335938 82.109375 131.902344 83.492188 129.605469 81.972656 C 127.75 80.746094 126.960938 77.464844 124.738281 75.824219 C 121.980469 73.785156 117.992188 74.605469 116.34375 71.445312 C 114.957031 68.792969 117.21875 63.941406 119.902344 61.1875 C 123.773438 57.214844 129.367188 56.476562 134.191406 58.929688 " fill-opacity="1" fill-rule="evenodd"/></g></g></g></g></g><g clip-path="url(#ceccb075f7)"><g clip-path="url(#aa9ec40933)"><g clip-path="url(#3bab953008)"><path fill="#ffffff" d="M 232.453125 26.988281 C 241.078125 31.722656 231.277344 46.171875 224.304688 40.441406 C 218.699219 35.835938 224.957031 22.875 232.453125 26.988281 " fill-opacity="1" fill-rule="evenodd"/></g></g></g><g clip-path="url(#2eeba0f729)"><g clip-path="url(#079e2b252c)"><g clip-path="url(#f0a387f45a)"><path fill="#ffffff" d="M 245.003906 36.355469 C 255.007812 40.894531 242.605469 55.421875 235.238281 48.601562 C 229.40625 43.203125 238.605469 33.449219 245.003906 36.355469 " fill-opacity="1" fill-rule="evenodd"/></g></g></g><g clip-path="url(#93237162c7)"><g clip-path="url(#eb55ab9b7f)"><g clip-path="url(#3bff2d8047)"><path fill="#ffffff" d="M 217.085938 41.671875 C 209.046875 46.0625 203.246094 34.394531 209.222656 28.558594 C 215.519531 22.410156 225.332031 35.261719 217.085938 41.671875 " fill-opacity="1" fill-rule="evenodd"/></g></g></g><g clip-path="url(#7405dcc95c)"><g clip-path="url(#1eb98ae86e)"><g clip-path="url(#fce1f5024e)"><g clip-path="url(#b6fb8459e4)"><g clip-path="url(#5986b9b62f)"><path fill="#ffffff" d="M 248.582031 52.257812 C 250.886719 53.367188 252.867188 55.960938 252.539062 58.359375 C 251.632812 64.976562 242.585938 67.140625 238.257812 63.136719 C 235.878906 60.941406 236.027344 57.632812 237.328125 55.515625 C 240.113281 50.976562 245.128906 50.589844 248.582031 52.257812 " fill-opacity="1" fill-rule="evenodd"/></g></g></g></g></g><g clip-path="url(#ad0674e3a2)"><g clip-path="url(#01e5aee29f)"><g clip-path="url(#8d15538891)"><g clip-path="url(#b6ece6e965)"><g clip-path="url(#fc0482d09f)"><path fill="#ffffff" d="M 226.492188 45.539062 C 234.496094 49.609375 237.195312 59.578125 229.277344 67.148438 C 227.636719 68.714844 224.203125 70.097656 221.90625 68.578125 C 220.050781 67.355469 219.261719 64.070312 217.039062 62.429688 C 214.28125 60.390625 210.292969 61.210938 208.640625 58.054688 C 207.257812 55.402344 209.515625 50.546875 212.203125 47.792969 C 216.074219 43.820312 221.667969 43.085938 226.492188 45.539062 " fill-opacity="1" fill-rule="evenodd"/></g></g></g></g></g></svg>