<svg xmlns="http://www.w3.org/2000/svg" xmlns:xlink="http://www.w3.org/1999/xlink" width="500" zoomAndPan="magnify" viewBox="0 0 375 374.999991" height="500" preserveAspectRatio="xMidYMid meet" version="1.0"><defs><filter x="0%" y="0%" width="100%" height="100%" id="c9ab8a7b26"><feColorMatrix values="0 0 0 0 1 0 0 0 0 1 0 0 0 0 1 0 0 0 1 0" color-interpolation-filters="sRGB"/></filter><g/><clipPath id="9d70d08172"><path d="M 211.03125 146.953125 L 241.550781 146.953125 L 241.550781 177.921875 L 211.03125 177.921875 Z M 211.03125 146.953125 " clip-rule="nonzero"/></clipPath><clipPath id="b41b84e3c3"><path d="M 160.015625 162.828125 L 212.714844 162.828125 L 212.714844 206.871094 L 160.015625 206.871094 Z M 160.015625 162.828125 " clip-rule="nonzero"/></clipPath><clipPath id="7493af80b2"><path d="M 41 206 L 55 206 L 55 220.125 L 41 220.125 Z M 41 206 " clip-rule="nonzero"/></clipPath><clipPath id="bd4c8c7f27"><path d="M 47.925781 220.125 C 45.148438 219.523438 44.476562 219.148438 43.875 218.699219 C 43.273438 218.25 42.75 217.726562 42.375 217.125 C 42 216.523438 41.699219 215.851562 41.476562 215.175781 C 41.25 214.5 41.175781 213.75 41.175781 213 C 41.175781 212.25 41.398438 211.5 41.699219 210.824219 C 42 210.148438 42.375 209.550781 42.824219 209.023438 C 43.273438 208.5 43.875 207.976562 44.476562 207.601562 C 45.074219 207.226562 45.824219 206.925781 46.5 206.773438 C 47.175781 206.625 48 206.550781 48.675781 206.625 C 49.425781 206.699219 50.101562 206.925781 50.773438 207.226562 C 51.449219 207.523438 52.050781 207.898438 52.574219 208.425781 C 53.101562 208.949219 53.550781 209.550781 53.925781 210.226562 C 54.226562 210.824219 54.449219 211.574219 54.601562 212.25 C 54.75 212.925781 54.675781 213.75 54.601562 214.425781 C 54.523438 215.175781 54.300781 215.851562 53.925781 216.523438 C 53.625 217.125 53.101562 217.726562 52.574219 218.25 C 52.050781 218.773438 51.449219 219.226562 50.773438 219.523438 C 50.101562 219.824219 49.351562 219.976562 48.675781 220.050781 C 47.925781 220.125 47.175781 220.125 46.5 219.976562 C 45.824219 219.824219 45.074219 219.523438 44.476562 219.148438 C 43.875 218.773438 43.273438 218.25 42.824219 217.726562 C 42.375 217.199219 42 216.523438 41.699219 215.851562 C 41.398438 215.175781 41.25 214.425781 41.175781 213.75 C 41.101562 213 41.25 212.25 41.476562 211.574219 C 41.699219 210.898438 42 210.148438 42.375 209.550781 C 42.75 208.949219 43.273438 208.425781 43.875 207.976562 C 44.476562 207.523438 45.148438 207.226562 45.824219 207 C 46.5 206.773438 47.925781 206.625 47.925781 206.625 C 47.925781 206.625 49.050781 206.625 49.574219 206.773438 C 50.101562 206.925781 50.625 207.148438 51.074219 207.375 C 51.523438 207.601562 52.050781 207.898438 52.425781 208.273438 C 52.800781 208.648438 53.175781 209.101562 53.476562 209.550781 C 53.773438 210 54 210.449219 54.226562 210.976562 C 54.449219 211.5 54.601562 212.023438 54.675781 212.550781 C 54.75 213.074219 54.75 213.675781 54.675781 214.199219 C 54.601562 214.726562 54.449219 215.25 54.226562 215.773438 C 54 216.300781 53.773438 216.75 53.476562 217.199219 C 53.175781 217.648438 52.800781 218.023438 52.425781 218.398438 C 52.050781 218.773438 51.523438 219.148438 51.074219 219.375 C 50.625 219.601562 50.101562 219.75 49.574219 219.898438 C 49.050781 220.050781 47.925781 220.125 47.925781 220.125 " clip-rule="nonzero"/></clipPath><mask id="961872d44e"><g filter="url(#c9ab8a7b26)"><rect x="-37.5" width="450" fill="#000000" y="-37.499999" height="449.999989" fill-opacity="0.498"/></g></mask><clipPath id="90a9de622a"><path d="M 0.0390625 0.398438 L 13.960938 0.398438 L 13.960938 14.125 L 0.0390625 14.125 Z M 0.0390625 0.398438 " clip-rule="nonzero"/></clipPath><clipPath id="0bf61aee0c"><path d="M 6.925781 14.125 C 4.148438 13.523438 3.476562 13.148438 2.875 12.699219 C 2.273438 12.25 1.75 11.726562 1.375 11.125 C 1 10.523438 0.699219 9.851562 0.476562 9.175781 C 0.25 8.5 0.175781 7.75 0.175781 7 C 0.175781 6.25 0.398438 5.5 0.699219 4.824219 C 1 4.148438 1.375 3.550781 1.824219 3.023438 C 2.273438 2.5 2.875 1.976562 3.476562 1.601562 C 4.074219 1.226562 4.824219 0.925781 5.5 0.773438 C 6.175781 0.625 7 0.550781 7.675781 0.625 C 8.425781 0.699219 9.101562 0.925781 9.773438 1.226562 C 10.449219 1.523438 11.050781 1.898438 11.574219 2.425781 C 12.101562 2.949219 12.550781 3.550781 12.925781 4.226562 C 13.226562 4.824219 13.449219 5.574219 13.601562 6.25 C 13.75 6.925781 13.675781 7.75 13.601562 8.425781 C 13.523438 9.175781 13.300781 9.851562 12.925781 10.523438 C 12.625 11.125 12.101562 11.726562 11.574219 12.25 C 11.050781 12.773438 10.449219 13.226562 9.773438 13.523438 C 9.101562 13.824219 8.351562 13.976562 7.675781 14.050781 C 6.925781 14.125 6.175781 14.125 5.5 13.976562 C 4.824219 13.824219 4.074219 13.523438 3.476562 13.148438 C 2.875 12.773438 2.273438 12.25 1.824219 11.726562 C 1.375 11.199219 1 10.523438 0.699219 9.851562 C 0.398438 9.175781 0.25 8.425781 0.175781 7.75 C 0.101562 7 0.25 6.25 0.476562 5.574219 C 0.699219 4.898438 1 4.148438 1.375 3.550781 C 1.75 2.949219 2.273438 2.425781 2.875 1.976562 C 3.476562 1.523438 4.148438 1.226562 4.824219 1 C 5.5 0.773438 6.925781 0.625 6.925781 0.625 C 6.925781 0.625 8.050781 0.625 8.574219 0.773438 C 9.101562 0.925781 9.625 1.148438 10.074219 1.375 C 10.523438 1.601562 11.050781 1.898438 11.425781 2.273438 C 11.800781 2.648438 12.175781 3.101562 12.476562 3.550781 C 12.773438 4 13 4.449219 13.226562 4.976562 C 13.449219 5.5 13.601562 6.023438 13.675781 6.550781 C 13.75 7.074219 13.75 7.675781 13.675781 8.199219 C 13.601562 8.726562 13.449219 9.25 13.226562 9.773438 C 13 10.300781 12.773438 10.75 12.476562 11.199219 C 12.175781 11.648438 11.800781 12.023438 11.425781 12.398438 C 11.050781 12.773438 10.523438 13.148438 10.074219 13.375 C 9.625 13.601562 9.101562 13.75 8.574219 13.898438 C 8.050781 14.050781 6.925781 14.125 6.925781 14.125 " clip-rule="nonzero"/></clipPath><clipPath id="49cd32723b"><rect x="0" width="14" y="0" height="15"/></clipPath></defs><path stroke-linecap="butt" transform="matrix(0.867322, -0.500749, 0.500608, 0.867078, 92.82536, 144.087017)" fill="none" stroke-linejoin="miter" d="M 0.0000291292 4.999403 L 110.982662 4.999627 " stroke="#432f23" stroke-width="10" stroke-opacity="1" stroke-miterlimit="4"/><path stroke-linecap="butt" transform="matrix(-0.869772, -0.502163, 0.500608, -0.867078, 280.475055, 152.594565)" fill="none" stroke-linejoin="miter" d="M 0.00199841 5.000414 L 110.666772 4.998765 " stroke="#432f23" stroke-width="10" stroke-opacity="1" stroke-miterlimit="4"/><path stroke-linecap="butt" transform="matrix(0.000000000000000061, -1.004354, 1.001215, 0.000000000000000061, 110.321534, 134.589498)" fill="none" stroke-linejoin="miter" d="M -0.000344687 8.999558 L 19.947954 8.999558 " stroke="#432f23" stroke-width="18" stroke-opacity="1" stroke-miterlimit="4"/><path fill="#432f23" d="M 168.054688 125.46875 C 188.074219 122.667969 189.691406 158.476562 171.167969 157.613281 C 156.273438 156.914062 150.65625 127.90625 168.054688 125.46875 " fill-opacity="1" fill-rule="evenodd"/><path fill="#432f23" d="M 200.234375 125.46875 C 222.285156 120.664062 219.710938 159.789062 199.195312 157.613281 C 182.960938 155.886719 186.125 128.546875 200.234375 125.46875 " fill-opacity="1" fill-rule="evenodd"/><path fill="#432f23" d="M 160.789062 168.5 C 152.949219 185.59375 129.050781 173.515625 131.722656 156.574219 C 134.535156 138.730469 166.492188 147.828125 160.789062 168.5 " fill-opacity="1" fill-rule="evenodd"/><g clip-path="url(#9d70d08172)"><path fill="#432f23" d="M 225.667969 147.242188 C 230.824219 146.246094 237.273438 148.078125 239.679688 152.425781 C 246.320312 164.429688 234.082031 179.097656 222.035156 177.828125 C 215.417969 177.132812 211.59375 171.507812 211.132812 166.425781 C 210.148438 155.535156 217.929688 148.738281 225.667969 147.242188 " fill-opacity="1" fill-rule="evenodd"/></g><g clip-path="url(#b41b84e3c3)"><path fill="#432f23" d="M 181.03125 163.3125 C 199.214844 160.179688 215.910156 173.269531 212.171875 195.453125 C 211.398438 200.046875 207.441406 206.539062 201.789062 206.859375 C 197.230469 207.121094 191.898438 202.6875 186.222656 202.714844 C 179.171875 202.746094 173.617188 208.992188 167.015625 205.824219 C 161.472656 203.164062 159.234375 192.398438 160.269531 184.570312 C 161.761719 173.28125 170.070312 165.199219 181.03125 163.3125 " fill-opacity="1" fill-rule="evenodd"/></g><g fill="#432f23" fill-opacity="1"><g transform="translate(108.611482, 254.112331)"><g><path d="M 2 -1.78125 L 2 -25.3125 C 2 -25.78125 2.195312 -26.1875 2.59375 -26.53125 C 2.988281 -26.875 3.503906 -27.046875 4.140625 -27.046875 L 11.796875 -27.046875 C 14.441406 -27.046875 16.554688 -26.359375 18.140625 -24.984375 C 19.734375 -23.617188 20.53125 -21.46875 20.53125 -18.53125 L 20.53125 -18.359375 C 20.53125 -15.421875 19.695312 -13.253906 18.03125 -11.859375 C 16.375 -10.460938 14.175781 -9.765625 11.4375 -9.765625 L 7.765625 -9.765625 L 7.765625 -1.78125 C 7.765625 -1.207031 7.476562 -0.765625 6.90625 -0.453125 C 6.34375 -0.148438 5.664062 0 4.875 0 C 4.09375 0 3.414062 -0.148438 2.84375 -0.453125 C 2.28125 -0.765625 2 -1.207031 2 -1.78125 Z M 7.765625 -14.203125 L 11.4375 -14.203125 C 13.65625 -14.203125 14.765625 -15.4375 14.765625 -17.90625 L 14.765625 -18.3125 C 14.765625 -20.78125 13.65625 -22.015625 11.4375 -22.015625 L 7.765625 -22.015625 Z M 7.765625 -14.203125 "/></g></g></g><g fill="#432f23" fill-opacity="1"><g transform="translate(129.662247, 254.112331)"><g><path d="M 1 -7.46875 L 1 -10.171875 C 1 -12.265625 1.832031 -14.0625 3.5 -15.5625 C 5.164062 -17.070312 7.171875 -17.828125 9.515625 -17.828125 C 11.703125 -17.828125 13.570312 -17.164062 15.125 -15.84375 C 16.6875 -14.53125 17.46875 -12.847656 17.46875 -10.796875 C 17.46875 -10.015625 17.367188 -9.375 17.171875 -8.875 C 16.972656 -8.382812 16.675781 -8.039062 16.28125 -7.84375 C 15.882812 -7.644531 15.519531 -7.515625 15.1875 -7.453125 C 14.851562 -7.390625 14.414062 -7.359375 13.875 -7.359375 L 6.734375 -7.359375 L 6.734375 -7.140625 C 6.734375 -6.222656 7.078125 -5.488281 7.765625 -4.9375 C 8.460938 -4.382812 9.378906 -4.109375 10.515625 -4.109375 C 11.367188 -4.109375 12.269531 -4.332031 13.21875 -4.78125 C 14.175781 -5.238281 14.816406 -5.46875 15.140625 -5.46875 C 15.753906 -5.46875 16.253906 -5.175781 16.640625 -4.59375 C 17.035156 -4.019531 17.234375 -3.472656 17.234375 -2.953125 C 17.234375 -2.191406 16.570312 -1.445312 15.25 -0.71875 C 13.9375 0.0078125 12.304688 0.375 10.359375 0.375 C 7.597656 0.375 5.347656 -0.34375 3.609375 -1.78125 C 1.867188 -3.226562 1 -5.125 1 -7.46875 Z M 6.734375 -10.578125 L 11.328125 -10.578125 C 11.835938 -10.578125 12.09375 -10.875 12.09375 -11.46875 C 12.09375 -12.15625 11.828125 -12.695312 11.296875 -13.09375 C 10.773438 -13.488281 10.140625 -13.6875 9.390625 -13.6875 C 8.679688 -13.6875 8.0625 -13.488281 7.53125 -13.09375 C 7 -12.695312 6.734375 -12.15625 6.734375 -11.46875 Z M 6.734375 -10.578125 "/></g></g></g><g fill="#432f23" fill-opacity="1"><g transform="translate(148.012298, 254.112331)"><g><path d="M 1.59375 -6.25 L 1.59375 -23.53125 C 1.59375 -24.019531 1.882812 -24.429688 2.46875 -24.765625 C 3.0625 -25.097656 3.71875 -25.265625 4.4375 -25.265625 C 5.207031 -25.265625 5.878906 -25.097656 6.453125 -24.765625 C 7.035156 -24.429688 7.328125 -24.019531 7.328125 -23.53125 L 7.328125 -17.609375 L 11.5 -17.609375 C 11.945312 -17.609375 12.289062 -17.40625 12.53125 -17 C 12.78125 -16.59375 12.90625 -16.117188 12.90625 -15.578125 C 12.90625 -15.003906 12.78125 -14.519531 12.53125 -14.125 C 12.289062 -13.738281 11.945312 -13.546875 11.5 -13.546875 L 7.328125 -13.546875 L 7.328125 -6.25 C 7.328125 -5.707031 7.4375 -5.332031 7.65625 -5.125 C 7.875 -4.914062 8.269531 -4.8125 8.84375 -4.8125 L 10.4375 -4.8125 C 11.226562 -4.8125 11.832031 -4.566406 12.25 -4.078125 C 12.664062 -3.597656 12.875 -3.039062 12.875 -2.40625 C 12.875 -1.738281 12.664062 -1.171875 12.25 -0.703125 C 11.832031 -0.234375 11.226562 0 10.4375 0 L 8.84375 0 C 4.007812 0 1.59375 -2.082031 1.59375 -6.25 Z M 1.59375 -6.25 "/></g></g></g><g fill="#432f23" fill-opacity="1"><g transform="translate(161.478869, 254.112331)"><g/></g></g><g fill="#432f23" fill-opacity="1"><g transform="translate(168.87808, 254.112331)"><g><path d="M 0.703125 -4.4375 C 0.703125 -5.125 0.953125 -5.8125 1.453125 -6.5 C 1.960938 -7.195312 2.550781 -7.546875 3.21875 -7.546875 C 3.59375 -7.546875 4.003906 -7.40625 4.453125 -7.125 C 4.910156 -6.84375 5.332031 -6.523438 5.71875 -6.171875 C 6.101562 -5.828125 6.640625 -5.515625 7.328125 -5.234375 C 8.015625 -4.953125 8.742188 -4.8125 9.515625 -4.8125 C 10.472656 -4.8125 11.304688 -5.015625 12.015625 -5.421875 C 12.734375 -5.828125 13.09375 -6.4375 13.09375 -7.25 C 13.09375 -8.0625 12.691406 -8.773438 11.890625 -9.390625 C 11.085938 -10.015625 10.113281 -10.578125 8.96875 -11.078125 C 7.820312 -11.585938 6.671875 -12.15625 5.515625 -12.78125 C 4.359375 -13.414062 3.378906 -14.3125 2.578125 -15.46875 C 1.773438 -16.625 1.375 -18.003906 1.375 -19.609375 C 1.375 -22.171875 2.296875 -24.085938 4.140625 -25.359375 C 5.992188 -26.628906 8.226562 -27.265625 10.84375 -27.265625 C 11.476562 -27.265625 12.144531 -27.226562 12.84375 -27.15625 C 13.550781 -27.082031 14.34375 -26.941406 15.21875 -26.734375 C 16.09375 -26.523438 16.804688 -26.1875 17.359375 -25.71875 C 17.921875 -25.25 18.203125 -24.679688 18.203125 -24.015625 C 18.203125 -23.367188 18 -22.703125 17.59375 -22.015625 C 17.1875 -21.328125 16.625 -20.984375 15.90625 -20.984375 C 15.613281 -20.984375 14.984375 -21.21875 14.015625 -21.6875 C 13.054688 -22.15625 12 -22.390625 10.84375 -22.390625 C 9.601562 -22.390625 8.675781 -22.171875 8.0625 -21.734375 C 7.445312 -21.304688 7.140625 -20.785156 7.140625 -20.171875 C 7.140625 -19.597656 7.425781 -19.078125 8 -18.609375 C 8.582031 -18.140625 9.304688 -17.738281 10.171875 -17.40625 C 11.035156 -17.070312 11.976562 -16.640625 13 -16.109375 C 14.03125 -15.578125 14.972656 -15 15.828125 -14.375 C 16.691406 -13.75 17.414062 -12.867188 18 -11.734375 C 18.582031 -10.597656 18.875 -9.300781 18.875 -7.84375 C 18.875 -5.25 18.019531 -3.226562 16.3125 -1.78125 C 14.613281 -0.34375 12.382812 0.375 9.625 0.375 C 7.226562 0.375 5.140625 -0.117188 3.359375 -1.109375 C 1.585938 -2.097656 0.703125 -3.207031 0.703125 -4.4375 Z M 0.703125 -4.4375 "/></g></g></g><g fill="#432f23" fill-opacity="1"><g transform="translate(188.596981, 254.112331)"><g><path d="M 1.59375 -6.25 L 1.59375 -23.53125 C 1.59375 -24.019531 1.882812 -24.429688 2.46875 -24.765625 C 3.0625 -25.097656 3.71875 -25.265625 4.4375 -25.265625 C 5.207031 -25.265625 5.878906 -25.097656 6.453125 -24.765625 C 7.035156 -24.429688 7.328125 -24.019531 7.328125 -23.53125 L 7.328125 -17.609375 L 11.5 -17.609375 C 11.945312 -17.609375 12.289062 -17.40625 12.53125 -17 C 12.78125 -16.59375 12.90625 -16.117188 12.90625 -15.578125 C 12.90625 -15.003906 12.78125 -14.519531 12.53125 -14.125 C 12.289062 -13.738281 11.945312 -13.546875 11.5 -13.546875 L 7.328125 -13.546875 L 7.328125 -6.25 C 7.328125 -5.707031 7.4375 -5.332031 7.65625 -5.125 C 7.875 -4.914062 8.269531 -4.8125 8.84375 -4.8125 L 10.4375 -4.8125 C 11.226562 -4.8125 11.832031 -4.566406 12.25 -4.078125 C 12.664062 -3.597656 12.875 -3.039062 12.875 -2.40625 C 12.875 -1.738281 12.664062 -1.171875 12.25 -0.703125 C 11.832031 -0.234375 11.226562 0 10.4375 0 L 8.84375 0 C 4.007812 0 1.59375 -2.082031 1.59375 -6.25 Z M 1.59375 -6.25 "/></g></g></g><g fill="#432f23" fill-opacity="1"><g transform="translate(202.063552, 254.112331)"><g><path d="M 1 -7.46875 L 1 -10.0625 C 1 -12.15625 1.820312 -13.972656 3.46875 -15.515625 C 5.125 -17.054688 7.097656 -17.828125 9.390625 -17.828125 C 11.660156 -17.828125 13.632812 -17.0625 15.3125 -15.53125 C 16.988281 -14.007812 17.828125 -12.1875 17.828125 -10.0625 L 17.828125 -7.46875 C 17.828125 -5.394531 16.984375 -3.566406 15.296875 -1.984375 C 13.609375 -0.410156 11.640625 0.375 9.390625 0.375 C 7.148438 0.375 5.191406 -0.410156 3.515625 -1.984375 C 1.835938 -3.566406 1 -5.394531 1 -7.46875 Z M 6.734375 -7.46875 C 6.734375 -6.726562 6.988281 -6.066406 7.5 -5.484375 C 8.019531 -4.910156 8.648438 -4.625 9.390625 -4.625 C 10.140625 -4.625 10.773438 -4.910156 11.296875 -5.484375 C 11.828125 -6.066406 12.09375 -6.726562 12.09375 -7.46875 L 12.09375 -10.0625 C 12.09375 -10.78125 11.820312 -11.421875 11.28125 -11.984375 C 10.738281 -12.554688 10.109375 -12.84375 9.390625 -12.84375 C 8.679688 -12.84375 8.0625 -12.554688 7.53125 -11.984375 C 7 -11.421875 6.734375 -10.78125 6.734375 -10.0625 Z M 6.734375 -7.46875 "/></g></g></g><g fill="#432f23" fill-opacity="1"><g transform="translate(220.894552, 254.112331)"><g><path d="M 1.671875 -1.78125 L 1.671875 -15.875 C 1.671875 -16.394531 1.929688 -16.8125 2.453125 -17.125 C 2.984375 -17.445312 3.660156 -17.609375 4.484375 -17.609375 C 5.191406 -17.609375 5.789062 -17.445312 6.28125 -17.125 C 6.78125 -16.8125 7.03125 -16.394531 7.03125 -15.875 L 7.03125 -14.5 C 7.425781 -15.394531 8.035156 -16.171875 8.859375 -16.828125 C 9.679688 -17.492188 10.539062 -17.828125 11.4375 -17.828125 L 12.5 -17.828125 C 13.039062 -17.828125 13.515625 -17.582031 13.921875 -17.09375 C 14.335938 -16.601562 14.546875 -16.023438 14.546875 -15.359375 C 14.546875 -14.660156 14.335938 -14.066406 13.921875 -13.578125 C 13.515625 -13.085938 13.039062 -12.84375 12.5 -12.84375 L 11.4375 -12.84375 C 10.375 -12.84375 9.4375 -12.328125 8.625 -11.296875 C 7.8125 -10.273438 7.40625 -8.953125 7.40625 -7.328125 L 7.40625 -1.78125 C 7.40625 -1.332031 7.113281 -0.921875 6.53125 -0.546875 C 5.945312 -0.179688 5.257812 0 4.46875 0 C 3.6875 0 3.023438 -0.175781 2.484375 -0.53125 C 1.941406 -0.894531 1.671875 -1.3125 1.671875 -1.78125 Z M 1.671875 -1.78125 "/></g></g></g><g fill="#432f23" fill-opacity="1"><g transform="translate(235.471005, 254.112331)"><g><path d="M 1 -7.46875 L 1 -10.171875 C 1 -12.265625 1.832031 -14.0625 3.5 -15.5625 C 5.164062 -17.070312 7.171875 -17.828125 9.515625 -17.828125 C 11.703125 -17.828125 13.570312 -17.164062 15.125 -15.84375 C 16.6875 -14.53125 17.46875 -12.847656 17.46875 -10.796875 C 17.46875 -10.015625 17.367188 -9.375 17.171875 -8.875 C 16.972656 -8.382812 16.675781 -8.039062 16.28125 -7.84375 C 15.882812 -7.644531 15.519531 -7.515625 15.1875 -7.453125 C 14.851562 -7.390625 14.414062 -7.359375 13.875 -7.359375 L 6.734375 -7.359375 L 6.734375 -7.140625 C 6.734375 -6.222656 7.078125 -5.488281 7.765625 -4.9375 C 8.460938 -4.382812 9.378906 -4.109375 10.515625 -4.109375 C 11.367188 -4.109375 12.269531 -4.332031 13.21875 -4.78125 C 14.175781 -5.238281 14.816406 -5.46875 15.140625 -5.46875 C 15.753906 -5.46875 16.253906 -5.175781 16.640625 -4.59375 C 17.035156 -4.019531 17.234375 -3.472656 17.234375 -2.953125 C 17.234375 -2.191406 16.570312 -1.445312 15.25 -0.71875 C 13.9375 0.0078125 12.304688 0.375 10.359375 0.375 C 7.597656 0.375 5.347656 -0.34375 3.609375 -1.78125 C 1.867188 -3.226562 1 -5.125 1 -7.46875 Z M 6.734375 -10.578125 L 11.328125 -10.578125 C 11.835938 -10.578125 12.09375 -10.875 12.09375 -11.46875 C 12.09375 -12.15625 11.828125 -12.695312 11.296875 -13.09375 C 10.773438 -13.488281 10.140625 -13.6875 9.390625 -13.6875 C 8.679688 -13.6875 8.0625 -13.488281 7.53125 -13.09375 C 7 -12.695312 6.734375 -12.15625 6.734375 -11.46875 Z M 6.734375 -10.578125 "/></g></g></g><g fill="#432f23" fill-opacity="1"><g transform="translate(253.821056, 254.112331)"><g><path d="M 0.78125 -3.03125 C 0.78125 -3.550781 0.960938 -4.097656 1.328125 -4.671875 C 1.703125 -5.253906 2.144531 -5.546875 2.65625 -5.546875 C 2.957031 -5.546875 3.320312 -5.410156 3.75 -5.140625 C 4.1875 -4.867188 4.726562 -4.59375 5.375 -4.3125 C 6.03125 -4.03125 6.789062 -3.890625 7.65625 -3.890625 C 9.1875 -3.890625 9.953125 -4.296875 9.953125 -5.109375 C 9.953125 -5.546875 9.65625 -5.90625 9.0625 -6.1875 C 8.46875 -6.476562 7.742188 -6.722656 6.890625 -6.921875 C 6.046875 -7.117188 5.195312 -7.375 4.34375 -7.6875 C 3.5 -8.007812 2.78125 -8.539062 2.1875 -9.28125 C 1.59375 -10.019531 1.296875 -10.972656 1.296875 -12.140625 C 1.296875 -13.710938 1.847656 -15.050781 2.953125 -16.15625 C 4.066406 -17.269531 5.832031 -17.828125 8.25 -17.828125 C 9.90625 -17.828125 11.367188 -17.570312 12.640625 -17.0625 C 13.910156 -16.5625 14.546875 -15.929688 14.546875 -15.171875 C 14.546875 -14.679688 14.347656 -14.109375 13.953125 -13.453125 C 13.554688 -12.796875 13.0625 -12.46875 12.46875 -12.46875 C 12.21875 -12.46875 11.648438 -12.648438 10.765625 -13.015625 C 9.878906 -13.390625 9.066406 -13.578125 8.328125 -13.578125 C 7.628906 -13.578125 7.101562 -13.457031 6.75 -13.21875 C 6.394531 -12.988281 6.21875 -12.710938 6.21875 -12.390625 C 6.21875 -12.023438 6.519531 -11.726562 7.125 -11.5 C 7.726562 -11.28125 8.453125 -11.066406 9.296875 -10.859375 C 10.148438 -10.648438 11.003906 -10.378906 11.859375 -10.046875 C 12.710938 -9.710938 13.441406 -9.144531 14.046875 -8.34375 C 14.648438 -7.539062 14.953125 -6.535156 14.953125 -5.328125 C 14.953125 -3.546875 14.328125 -2.148438 13.078125 -1.140625 C 11.835938 -0.128906 10.082031 0.375 7.8125 0.375 C 5.882812 0.375 4.226562 0.0351562 2.84375 -0.640625 C 1.46875 -1.328125 0.78125 -2.125 0.78125 -3.03125 Z M 0.78125 -3.03125 "/></g></g></g><g clip-path="url(#7493af80b2)"><g clip-path="url(#bd4c8c7f27)"><g mask="url(#961872d44e)"><g transform="matrix(1, 0, 0, 1, 41, 206)"><g clip-path="url(#49cd32723b)"><g clip-path="url(#90a9de622a)"><g clip-path="url(#0bf61aee0c)"><rect x="-123.5" width="540" fill="#e7e1ca" height="539.999987" y="-288.499998" fill-opacity="1"/></g></g></g></g></g></g></g></svg>