<svg xmlns="http://www.w3.org/2000/svg" xmlns:xlink="http://www.w3.org/1999/xlink" width="500" zoomAndPan="magnify" viewBox="0 0 375 374.999991" height="500" preserveAspectRatio="xMidYMid meet" version="1.0"><defs><clipPath id="944d2a8e92"><path d="M 273.269531 125.34375 L 375 125.34375 L 375 228.761719 L 273.269531 228.761719 Z M 273.269531 125.34375 " clip-rule="nonzero"/></clipPath><clipPath id="e9face55e0"><path d="M 103.214844 178.363281 L 278.878906 178.363281 L 278.878906 325.441406 L 103.214844 325.441406 Z M 103.214844 178.363281 " clip-rule="nonzero"/></clipPath></defs><path fill="#ffe4c0" d="M 130.011719 53.605469 C 196.746094 44.242188 202.140625 163.835938 140.386719 160.941406 C 90.742188 158.613281 72.011719 61.742188 130.011719 53.605469 " fill-opacity="1" fill-rule="evenodd"/><path fill="#ffe4c0" d="M 237.273438 53.605469 C 310.777344 37.550781 302.195312 168.210938 233.820312 160.941406 C 179.699219 155.183594 190.242188 63.875 237.273438 53.605469 " fill-opacity="1" fill-rule="evenodd"/><path fill="#ffe4c0" d="M 105.792969 197.296875 C 79.65625 254.390625 0 214.054688 8.90625 157.472656 C 18.285156 97.878906 124.800781 128.261719 105.792969 197.296875 " fill-opacity="1" fill-rule="evenodd"/><g clip-path="url(#944d2a8e92)"><path fill="#ffe4c0" d="M 322.054688 126.316406 C 339.246094 122.984375 360.738281 129.097656 368.761719 143.625 C 390.894531 183.707031 350.101562 232.691406 309.941406 228.453125 C 287.882812 226.136719 275.144531 207.347656 273.609375 190.371094 C 270.328125 154.007812 296.261719 131.3125 322.054688 126.316406 " fill-opacity="1" fill-rule="evenodd"/></g><g clip-path="url(#e9face55e0)"><path fill="#ffe4c0" d="M 173.261719 179.980469 C 233.882812 169.519531 289.53125 213.230469 277.070312 287.3125 C 274.488281 302.648438 261.296875 324.332031 242.464844 325.402344 C 227.265625 326.269531 209.488281 311.460938 190.566406 311.554688 C 167.066406 311.667969 148.546875 332.515625 126.546875 321.945312 C 108.074219 313.054688 100.605469 277.113281 104.0625 250.964844 C 109.03125 213.265625 136.734375 186.285156 173.261719 179.980469 " fill-opacity="1" fill-rule="evenodd"/></g></svg>