<svg xmlns="http://www.w3.org/2000/svg" xmlns:xlink="http://www.w3.org/1999/xlink" width="75" zoomAndPan="magnify" viewBox="0 0 56.25 56.249997" height="75" preserveAspectRatio="xMidYMid meet" version="1.0"><defs><g/><clipPath id="875abc7163"><path d="M 19.101562 21 L 25 21 L 25 27 L 19.101562 27 Z M 19.101562 21 " clip-rule="nonzero"/></clipPath><clipPath id="65d56d140c"><path d="M 31.507812 21.695312 L 36.125 21.695312 L 36.125 26.214844 L 31.507812 26.214844 Z M 31.507812 21.695312 " clip-rule="nonzero"/></clipPath><clipPath id="5c12d1fa8a"><path d="M 23.789062 24.011719 L 31.761719 24.011719 L 31.761719 30.4375 L 23.789062 30.4375 Z M 23.789062 24.011719 " clip-rule="nonzero"/></clipPath></defs><path stroke-linecap="butt" transform="matrix(0.128387, -0.074124, 0.0741031, 0.12835, 13.740595, 21.328695)" fill="none" stroke-linejoin="miter" d="M -0.00441663 4.984227 L 110.986258 4.988188 " stroke="#000000" stroke-width="10" stroke-opacity="1" stroke-miterlimit="4"/><path stroke-linecap="butt" transform="matrix(-0.128749, -0.0743333, 0.0741031, -0.12835, 41.517689, 22.588032)" fill="none" stroke-linejoin="miter" d="M 0.0119108 5.000641 L 110.667272 5.009851 " stroke="#000000" stroke-width="10" stroke-opacity="1" stroke-miterlimit="4"/><path stroke-linecap="butt" transform="matrix(0.000000000000000009, -0.148671, 0.148206, 0.000000000000000009, 16.33049, 19.922807)" fill="none" stroke-linejoin="miter" d="M 0.00626792 8.998086 L 19.948604 8.998086 " stroke="#000000" stroke-width="18" stroke-opacity="1" stroke-miterlimit="4"/><path fill="#000000" d="M 25.003906 18.5625 C 28.035156 18.15625 28.277344 23.378906 25.476562 23.25 C 23.222656 23.148438 22.371094 18.917969 25.003906 18.5625 " fill-opacity="1" fill-rule="evenodd"/><path fill="#000000" d="M 29.875 18.5625 C 33.210938 17.863281 32.820312 23.570312 29.71875 23.25 C 27.261719 23 27.738281 19.011719 29.875 18.5625 " fill-opacity="1" fill-rule="evenodd"/><g clip-path="url(#875abc7163)"><path fill="#000000" d="M 23.90625 24.839844 C 22.71875 27.332031 19.101562 25.570312 19.507812 23.101562 C 19.933594 20.496094 24.769531 21.824219 23.90625 24.839844 " fill-opacity="1" fill-rule="evenodd"/></g><g clip-path="url(#65d56d140c)"><path fill="#000000" d="M 33.722656 21.738281 C 34.503906 21.59375 35.480469 21.859375 35.84375 22.496094 C 36.847656 24.246094 34.996094 26.386719 33.171875 26.199219 C 32.171875 26.097656 31.59375 25.277344 31.523438 24.535156 C 31.375 22.949219 32.550781 21.957031 33.722656 21.738281 " fill-opacity="1" fill-rule="evenodd"/></g><g clip-path="url(#5c12d1fa8a)"><path fill="#000000" d="M 26.96875 24.082031 C 29.71875 23.625 32.246094 25.535156 31.679688 28.769531 C 31.5625 29.441406 30.964844 30.386719 30.109375 30.433594 C 29.417969 30.472656 28.613281 29.824219 27.753906 29.828125 C 26.6875 29.835938 25.847656 30.746094 24.847656 30.285156 C 24.007812 29.894531 23.671875 28.324219 23.828125 27.183594 C 24.050781 25.535156 25.308594 24.359375 26.96875 24.082031 " fill-opacity="1" fill-rule="evenodd"/></g><g fill="#000000" fill-opacity="1"><g transform="translate(16.082562, 37.329854)"><g><path d="M 0.296875 -0.265625 L 0.296875 -3.734375 C 0.296875 -3.804688 0.320312 -3.867188 0.375 -3.921875 C 0.4375 -3.972656 0.515625 -4 0.609375 -4 L 1.75 -4 C 2.132812 -4 2.441406 -3.894531 2.671875 -3.6875 C 2.910156 -3.488281 3.03125 -3.171875 3.03125 -2.734375 L 3.03125 -2.71875 C 3.03125 -2.28125 2.90625 -1.957031 2.65625 -1.75 C 2.414062 -1.539062 2.09375 -1.4375 1.6875 -1.4375 L 1.15625 -1.4375 L 1.15625 -0.265625 C 1.15625 -0.179688 1.109375 -0.113281 1.015625 -0.0625 C 0.929688 -0.0195312 0.832031 0 0.71875 0 C 0.601562 0 0.503906 -0.0195312 0.421875 -0.0625 C 0.335938 -0.113281 0.296875 -0.179688 0.296875 -0.265625 Z M 1.15625 -2.09375 L 1.6875 -2.09375 C 2.019531 -2.09375 2.1875 -2.273438 2.1875 -2.640625 L 2.1875 -2.703125 C 2.1875 -3.066406 2.019531 -3.25 1.6875 -3.25 L 1.15625 -3.25 Z M 1.15625 -2.09375 "/></g></g></g><g fill="#000000" fill-opacity="1"><g transform="translate(19.197362, 37.329854)"><g><path d="M 0.140625 -1.109375 L 0.140625 -1.5 C 0.140625 -1.8125 0.265625 -2.078125 0.515625 -2.296875 C 0.765625 -2.523438 1.0625 -2.640625 1.40625 -2.640625 C 1.726562 -2.640625 2.003906 -2.539062 2.234375 -2.34375 C 2.460938 -2.144531 2.578125 -1.894531 2.578125 -1.59375 C 2.578125 -1.476562 2.5625 -1.382812 2.53125 -1.3125 C 2.507812 -1.238281 2.46875 -1.1875 2.40625 -1.15625 C 2.34375 -1.125 2.285156 -1.101562 2.234375 -1.09375 C 2.191406 -1.09375 2.128906 -1.09375 2.046875 -1.09375 L 1 -1.09375 L 1 -1.0625 C 1 -0.925781 1.046875 -0.816406 1.140625 -0.734375 C 1.242188 -0.648438 1.378906 -0.609375 1.546875 -0.609375 C 1.679688 -0.609375 1.816406 -0.640625 1.953125 -0.703125 C 2.097656 -0.773438 2.191406 -0.8125 2.234375 -0.8125 C 2.328125 -0.8125 2.398438 -0.765625 2.453125 -0.671875 C 2.515625 -0.585938 2.546875 -0.507812 2.546875 -0.4375 C 2.546875 -0.320312 2.445312 -0.207031 2.25 -0.09375 C 2.0625 0.0078125 1.820312 0.0625 1.53125 0.0625 C 1.125 0.0625 0.789062 -0.0390625 0.53125 -0.25 C 0.269531 -0.46875 0.140625 -0.753906 0.140625 -1.109375 Z M 1 -1.5625 L 1.671875 -1.5625 C 1.742188 -1.5625 1.78125 -1.609375 1.78125 -1.703125 C 1.78125 -1.796875 1.738281 -1.875 1.65625 -1.9375 C 1.582031 -2 1.492188 -2.03125 1.390625 -2.03125 C 1.285156 -2.03125 1.191406 -2 1.109375 -1.9375 C 1.035156 -1.875 1 -1.796875 1 -1.703125 Z M 1 -1.5625 "/></g></g></g><g fill="#000000" fill-opacity="1"><g transform="translate(21.912548, 37.329854)"><g><path d="M 0.234375 -0.921875 L 0.234375 -3.484375 C 0.234375 -3.554688 0.273438 -3.613281 0.359375 -3.65625 C 0.453125 -3.707031 0.550781 -3.734375 0.65625 -3.734375 C 0.769531 -3.734375 0.867188 -3.707031 0.953125 -3.65625 C 1.035156 -3.613281 1.078125 -3.554688 1.078125 -3.484375 L 1.078125 -2.609375 L 1.703125 -2.609375 C 1.765625 -2.609375 1.8125 -2.578125 1.84375 -2.515625 C 1.882812 -2.453125 1.90625 -2.378906 1.90625 -2.296875 C 1.90625 -2.210938 1.882812 -2.140625 1.84375 -2.078125 C 1.8125 -2.023438 1.765625 -2 1.703125 -2 L 1.078125 -2 L 1.078125 -0.921875 C 1.078125 -0.835938 1.09375 -0.78125 1.125 -0.75 C 1.164062 -0.726562 1.226562 -0.71875 1.3125 -0.71875 L 1.546875 -0.71875 C 1.660156 -0.71875 1.75 -0.679688 1.8125 -0.609375 C 1.875 -0.535156 1.90625 -0.453125 1.90625 -0.359375 C 1.90625 -0.253906 1.875 -0.164062 1.8125 -0.09375 C 1.75 -0.03125 1.660156 0 1.546875 0 L 1.3125 0 C 0.59375 0 0.234375 -0.304688 0.234375 -0.921875 Z M 0.234375 -0.921875 "/></g></g></g><g fill="#000000" fill-opacity="1"><g transform="translate(23.905144, 37.329854)"><g/></g></g><g fill="#000000" fill-opacity="1"><g transform="translate(24.999977, 37.329854)"><g><path d="M 0.109375 -0.65625 C 0.109375 -0.757812 0.144531 -0.859375 0.21875 -0.953125 C 0.289062 -1.054688 0.375 -1.109375 0.46875 -1.109375 C 0.53125 -1.109375 0.59375 -1.085938 0.65625 -1.046875 C 0.726562 -1.003906 0.789062 -0.957031 0.84375 -0.90625 C 0.90625 -0.863281 0.984375 -0.820312 1.078125 -0.78125 C 1.179688 -0.738281 1.289062 -0.71875 1.40625 -0.71875 C 1.550781 -0.71875 1.675781 -0.742188 1.78125 -0.796875 C 1.882812 -0.859375 1.9375 -0.945312 1.9375 -1.0625 C 1.9375 -1.1875 1.875 -1.296875 1.75 -1.390625 C 1.632812 -1.484375 1.492188 -1.566406 1.328125 -1.640625 C 1.160156 -1.710938 0.988281 -1.796875 0.8125 -1.890625 C 0.644531 -1.984375 0.5 -2.113281 0.375 -2.28125 C 0.257812 -2.457031 0.203125 -2.664062 0.203125 -2.90625 C 0.203125 -3.28125 0.335938 -3.5625 0.609375 -3.75 C 0.878906 -3.9375 1.210938 -4.03125 1.609375 -4.03125 C 1.703125 -4.03125 1.800781 -4.023438 1.90625 -4.015625 C 2.007812 -4.003906 2.125 -3.984375 2.25 -3.953125 C 2.375 -3.921875 2.476562 -3.867188 2.5625 -3.796875 C 2.644531 -3.734375 2.6875 -3.648438 2.6875 -3.546875 C 2.6875 -3.453125 2.65625 -3.351562 2.59375 -3.25 C 2.539062 -3.144531 2.460938 -3.09375 2.359375 -3.09375 C 2.304688 -3.09375 2.207031 -3.128906 2.0625 -3.203125 C 1.925781 -3.273438 1.773438 -3.3125 1.609375 -3.3125 C 1.421875 -3.3125 1.28125 -3.28125 1.1875 -3.21875 C 1.101562 -3.15625 1.0625 -3.078125 1.0625 -2.984375 C 1.0625 -2.898438 1.101562 -2.820312 1.1875 -2.75 C 1.269531 -2.675781 1.375 -2.613281 1.5 -2.5625 C 1.632812 -2.519531 1.773438 -2.457031 1.921875 -2.375 C 2.078125 -2.300781 2.21875 -2.21875 2.34375 -2.125 C 2.46875 -2.03125 2.570312 -1.898438 2.65625 -1.734375 C 2.75 -1.566406 2.796875 -1.375 2.796875 -1.15625 C 2.796875 -0.769531 2.664062 -0.46875 2.40625 -0.25 C 2.15625 -0.0390625 1.828125 0.0625 1.421875 0.0625 C 1.066406 0.0625 0.757812 -0.0078125 0.5 -0.15625 C 0.238281 -0.3125 0.109375 -0.476562 0.109375 -0.65625 Z M 0.109375 -0.65625 "/></g></g></g><g fill="#000000" fill-opacity="1"><g transform="translate(27.917705, 37.329854)"><g><path d="M 0.234375 -0.921875 L 0.234375 -3.484375 C 0.234375 -3.554688 0.273438 -3.613281 0.359375 -3.65625 C 0.453125 -3.707031 0.550781 -3.734375 0.65625 -3.734375 C 0.769531 -3.734375 0.867188 -3.707031 0.953125 -3.65625 C 1.035156 -3.613281 1.078125 -3.554688 1.078125 -3.484375 L 1.078125 -2.609375 L 1.703125 -2.609375 C 1.765625 -2.609375 1.8125 -2.578125 1.84375 -2.515625 C 1.882812 -2.453125 1.90625 -2.378906 1.90625 -2.296875 C 1.90625 -2.210938 1.882812 -2.140625 1.84375 -2.078125 C 1.8125 -2.023438 1.765625 -2 1.703125 -2 L 1.078125 -2 L 1.078125 -0.921875 C 1.078125 -0.835938 1.09375 -0.78125 1.125 -0.75 C 1.164062 -0.726562 1.226562 -0.71875 1.3125 -0.71875 L 1.546875 -0.71875 C 1.660156 -0.71875 1.75 -0.679688 1.8125 -0.609375 C 1.875 -0.535156 1.90625 -0.453125 1.90625 -0.359375 C 1.90625 -0.253906 1.875 -0.164062 1.8125 -0.09375 C 1.75 -0.03125 1.660156 0 1.546875 0 L 1.3125 0 C 0.59375 0 0.234375 -0.304688 0.234375 -0.921875 Z M 0.234375 -0.921875 "/></g></g></g><g fill="#000000" fill-opacity="1"><g transform="translate(29.910302, 37.329854)"><g><path d="M 0.140625 -1.109375 L 0.140625 -1.484375 C 0.140625 -1.796875 0.257812 -2.066406 0.5 -2.296875 C 0.75 -2.523438 1.046875 -2.640625 1.390625 -2.640625 C 1.722656 -2.640625 2.015625 -2.523438 2.265625 -2.296875 C 2.515625 -2.066406 2.640625 -1.796875 2.640625 -1.484375 L 2.640625 -1.109375 C 2.640625 -0.796875 2.515625 -0.519531 2.265625 -0.28125 C 2.015625 -0.0507812 1.722656 0.0625 1.390625 0.0625 C 1.054688 0.0625 0.765625 -0.0507812 0.515625 -0.28125 C 0.265625 -0.519531 0.140625 -0.796875 0.140625 -1.109375 Z M 1 -1.109375 C 1 -0.992188 1.035156 -0.894531 1.109375 -0.8125 C 1.179688 -0.726562 1.269531 -0.6875 1.375 -0.6875 C 1.488281 -0.6875 1.582031 -0.726562 1.65625 -0.8125 C 1.738281 -0.894531 1.78125 -0.992188 1.78125 -1.109375 L 1.78125 -1.484375 C 1.78125 -1.585938 1.738281 -1.679688 1.65625 -1.765625 C 1.582031 -1.847656 1.492188 -1.890625 1.390625 -1.890625 C 1.285156 -1.890625 1.191406 -1.847656 1.109375 -1.765625 C 1.035156 -1.679688 1 -1.585938 1 -1.484375 Z M 1 -1.109375 "/></g></g></g><g fill="#000000" fill-opacity="1"><g transform="translate(32.696651, 37.329854)"><g><path d="M 0.25 -0.265625 L 0.25 -2.34375 C 0.25 -2.425781 0.285156 -2.488281 0.359375 -2.53125 C 0.441406 -2.582031 0.539062 -2.609375 0.65625 -2.609375 C 0.769531 -2.609375 0.863281 -2.582031 0.9375 -2.53125 C 1.007812 -2.488281 1.046875 -2.425781 1.046875 -2.34375 L 1.046875 -2.140625 C 1.097656 -2.273438 1.1875 -2.390625 1.3125 -2.484375 C 1.4375 -2.585938 1.5625 -2.640625 1.6875 -2.640625 L 1.84375 -2.640625 C 1.925781 -2.640625 2 -2.601562 2.0625 -2.53125 C 2.125 -2.457031 2.15625 -2.367188 2.15625 -2.265625 C 2.15625 -2.160156 2.125 -2.070312 2.0625 -2 C 2 -1.925781 1.925781 -1.890625 1.84375 -1.890625 L 1.6875 -1.890625 C 1.53125 -1.890625 1.390625 -1.8125 1.265625 -1.65625 C 1.148438 -1.507812 1.09375 -1.316406 1.09375 -1.078125 L 1.09375 -0.265625 C 1.09375 -0.203125 1.050781 -0.140625 0.96875 -0.078125 C 0.882812 -0.0234375 0.78125 0 0.65625 0 C 0.539062 0 0.441406 -0.0234375 0.359375 -0.078125 C 0.285156 -0.128906 0.25 -0.191406 0.25 -0.265625 Z M 0.25 -0.265625 "/></g></g></g><g fill="#000000" fill-opacity="1"><g transform="translate(34.853471, 37.329854)"><g><path d="M 0.140625 -1.109375 L 0.140625 -1.5 C 0.140625 -1.8125 0.265625 -2.078125 0.515625 -2.296875 C 0.765625 -2.523438 1.0625 -2.640625 1.40625 -2.640625 C 1.726562 -2.640625 2.003906 -2.539062 2.234375 -2.34375 C 2.460938 -2.144531 2.578125 -1.894531 2.578125 -1.59375 C 2.578125 -1.476562 2.5625 -1.382812 2.53125 -1.3125 C 2.507812 -1.238281 2.46875 -1.1875 2.40625 -1.15625 C 2.34375 -1.125 2.285156 -1.101562 2.234375 -1.09375 C 2.191406 -1.09375 2.128906 -1.09375 2.046875 -1.09375 L 1 -1.09375 L 1 -1.0625 C 1 -0.925781 1.046875 -0.816406 1.140625 -0.734375 C 1.242188 -0.648438 1.378906 -0.609375 1.546875 -0.609375 C 1.679688 -0.609375 1.816406 -0.640625 1.953125 -0.703125 C 2.097656 -0.773438 2.191406 -0.8125 2.234375 -0.8125 C 2.328125 -0.8125 2.398438 -0.765625 2.453125 -0.671875 C 2.515625 -0.585938 2.546875 -0.507812 2.546875 -0.4375 C 2.546875 -0.320312 2.445312 -0.207031 2.25 -0.09375 C 2.0625 0.0078125 1.820312 0.0625 1.53125 0.0625 C 1.125 0.0625 0.789062 -0.0390625 0.53125 -0.25 C 0.269531 -0.46875 0.140625 -0.753906 0.140625 -1.109375 Z M 1 -1.5625 L 1.671875 -1.5625 C 1.742188 -1.5625 1.78125 -1.609375 1.78125 -1.703125 C 1.78125 -1.796875 1.738281 -1.875 1.65625 -1.9375 C 1.582031 -2 1.492188 -2.03125 1.390625 -2.03125 C 1.285156 -2.03125 1.191406 -2 1.109375 -1.9375 C 1.035156 -1.875 1 -1.796875 1 -1.703125 Z M 1 -1.5625 "/></g></g></g><g fill="#000000" fill-opacity="1"><g transform="translate(37.568657, 37.329854)"><g><path d="M 0.109375 -0.453125 C 0.109375 -0.523438 0.132812 -0.601562 0.1875 -0.6875 C 0.25 -0.78125 0.316406 -0.828125 0.390625 -0.828125 C 0.429688 -0.828125 0.484375 -0.804688 0.546875 -0.765625 C 0.617188 -0.722656 0.703125 -0.679688 0.796875 -0.640625 C 0.890625 -0.597656 1 -0.578125 1.125 -0.578125 C 1.351562 -0.578125 1.46875 -0.632812 1.46875 -0.75 C 1.46875 -0.820312 1.421875 -0.878906 1.328125 -0.921875 C 1.242188 -0.960938 1.140625 -0.992188 1.015625 -1.015625 C 0.890625 -1.046875 0.765625 -1.082031 0.640625 -1.125 C 0.515625 -1.175781 0.40625 -1.253906 0.3125 -1.359375 C 0.226562 -1.472656 0.1875 -1.617188 0.1875 -1.796875 C 0.1875 -2.023438 0.269531 -2.222656 0.4375 -2.390625 C 0.601562 -2.554688 0.863281 -2.640625 1.21875 -2.640625 C 1.46875 -2.640625 1.6875 -2.597656 1.875 -2.515625 C 2.0625 -2.441406 2.15625 -2.351562 2.15625 -2.25 C 2.15625 -2.175781 2.125 -2.085938 2.0625 -1.984375 C 2 -1.890625 1.925781 -1.84375 1.84375 -1.84375 C 1.800781 -1.84375 1.710938 -1.867188 1.578125 -1.921875 C 1.453125 -1.972656 1.335938 -2 1.234375 -2 C 1.128906 -2 1.050781 -1.984375 1 -1.953125 C 0.945312 -1.921875 0.921875 -1.878906 0.921875 -1.828125 C 0.921875 -1.773438 0.960938 -1.734375 1.046875 -1.703125 C 1.140625 -1.671875 1.25 -1.640625 1.375 -1.609375 C 1.5 -1.578125 1.625 -1.535156 1.75 -1.484375 C 1.875 -1.429688 1.976562 -1.347656 2.0625 -1.234375 C 2.15625 -1.117188 2.203125 -0.96875 2.203125 -0.78125 C 2.203125 -0.519531 2.109375 -0.3125 1.921875 -0.15625 C 1.742188 -0.0078125 1.488281 0.0625 1.15625 0.0625 C 0.875 0.0625 0.628906 0.0078125 0.421875 -0.09375 C 0.210938 -0.195312 0.109375 -0.316406 0.109375 -0.453125 Z M 0.109375 -0.453125 "/></g></g></g></svg>