<svg xmlns="http://www.w3.org/2000/svg" xmlns:xlink="http://www.w3.org/1999/xlink" width="258" zoomAndPan="magnify" viewBox="0 0 193.5 173.249993" height="231" preserveAspectRatio="xMidYMid meet" version="1.0"><defs><g/><clipPath id="7d24d97705"><path d="M 0.167969 0 L 156 0 L 156 117 L 0.167969 117 Z M 0.167969 0 " clip-rule="nonzero"/></clipPath><clipPath id="e5e6d3bc83"><path d="M 37 0 L 192.835938 0 L 192.835938 117 L 37 117 Z M 37 0 " clip-rule="nonzero"/></clipPath><clipPath id="06d7d109ab"><path d="M 119.207031 58.308594 L 149.847656 58.308594 L 149.847656 89.167969 L 119.207031 89.167969 Z M 119.207031 58.308594 " clip-rule="nonzero"/></clipPath><clipPath id="85931d6f7e"><path d="M 68 74.128906 L 120.898438 74.128906 L 120.898438 118.019531 L 68 118.019531 Z M 68 74.128906 " clip-rule="nonzero"/></clipPath></defs><g clip-path="url(#7d24d97705)"><path stroke-linecap="butt" transform="matrix(0.865815, -0.499879, 0.499738, 0.865571, 0.74247, 55.490444)" fill="none" stroke-linejoin="miter" d="M 0.00183796 4.998872 L 110.983308 4.999682 " stroke="#432f23" stroke-width="10" stroke-opacity="1" stroke-miterlimit="4"/></g><g clip-path="url(#e5e6d3bc83)"><path stroke-linecap="butt" transform="matrix(-0.86826, -0.50129, 0.499738, -0.865571, 188.066122, 63.983215)" fill="none" stroke-linejoin="miter" d="M -0.00182266 5.000025 L 110.667101 4.999218 " stroke="#432f23" stroke-width="10" stroke-opacity="1" stroke-miterlimit="4"/></g><path stroke-linecap="butt" transform="matrix(0.000000000000000061, -1.002609, 0.999476, 0.000000000000000061, 18.208243, 46.009428)" fill="none" stroke-linejoin="miter" d="M 0.00161097 8.999599 L 19.945671 8.999599 " stroke="#432f23" stroke-width="18" stroke-opacity="1" stroke-miterlimit="4"/><path fill="#432f23" d="M 76.0625 36.898438 C 96.160156 34.105469 97.785156 69.792969 79.1875 68.929688 C 64.234375 68.234375 58.59375 39.328125 76.0625 36.898438 " fill-opacity="1" fill-rule="evenodd"/><path fill="#432f23" d="M 108.367188 36.898438 C 130.503906 32.109375 127.917969 71.097656 107.324219 68.929688 C 91.027344 67.210938 94.203125 39.964844 108.367188 36.898438 " fill-opacity="1" fill-rule="evenodd"/><path fill="#432f23" d="M 68.769531 79.777344 C 60.894531 96.816406 36.90625 84.78125 39.589844 67.894531 C 42.410156 50.113281 74.492188 59.179688 68.769531 79.777344 " fill-opacity="1" fill-rule="evenodd"/><g clip-path="url(#06d7d109ab)"><path fill="#432f23" d="M 133.902344 58.597656 C 139.078125 57.601562 145.550781 59.429688 147.96875 63.761719 C 154.632812 75.722656 142.347656 90.339844 130.25 89.078125 C 123.609375 88.386719 119.773438 82.777344 119.308594 77.710938 C 118.320312 66.859375 126.132812 60.089844 133.902344 58.597656 " fill-opacity="1" fill-rule="evenodd"/></g><g clip-path="url(#85931d6f7e)"><path fill="#432f23" d="M 89.089844 74.613281 C 107.34375 71.488281 124.105469 84.535156 120.351562 106.640625 C 119.574219 111.21875 115.601562 117.6875 109.929688 118.007812 C 105.351562 118.265625 100 113.847656 94.300781 113.875 C 87.222656 113.910156 81.644531 120.132812 75.019531 116.976562 C 69.457031 114.324219 67.207031 103.597656 68.246094 95.792969 C 69.742188 84.542969 78.085938 76.492188 89.089844 74.613281 " fill-opacity="1" fill-rule="evenodd"/></g><g fill="#432f23" fill-opacity="1"><g transform="translate(16.501164, 165.324571)"><g><path d="M 2 -1.765625 L 2 -25.265625 C 2 -25.734375 2.191406 -26.140625 2.578125 -26.484375 C 2.972656 -26.828125 3.492188 -27 4.140625 -27 L 11.78125 -27 C 14.414062 -27 16.523438 -26.316406 18.109375 -24.953125 C 19.703125 -23.585938 20.5 -21.4375 20.5 -18.5 L 20.5 -18.328125 C 20.5 -15.390625 19.664062 -13.222656 18 -11.828125 C 16.34375 -10.441406 14.144531 -9.75 11.40625 -9.75 L 7.75 -9.75 L 7.75 -1.765625 C 7.75 -1.203125 7.46875 -0.765625 6.90625 -0.453125 C 6.34375 -0.148438 5.664062 0 4.875 0 C 4.082031 0 3.40625 -0.148438 2.84375 -0.453125 C 2.28125 -0.765625 2 -1.203125 2 -1.765625 Z M 7.75 -14.1875 L 11.40625 -14.1875 C 13.625 -14.1875 14.734375 -15.414062 14.734375 -17.875 L 14.734375 -18.28125 C 14.734375 -20.75 13.625 -21.984375 11.40625 -21.984375 L 7.75 -21.984375 Z M 7.75 -14.1875 "/></g></g></g><g fill="#432f23" fill-opacity="1"><g transform="translate(37.515352, 165.324571)"><g><path d="M 1 -7.46875 L 1 -10.15625 C 1 -12.25 1.828125 -14.046875 3.484375 -15.546875 C 5.148438 -17.046875 7.15625 -17.796875 9.5 -17.796875 C 11.6875 -17.796875 13.554688 -17.132812 15.109375 -15.8125 C 16.660156 -14.5 17.4375 -12.820312 17.4375 -10.78125 C 17.4375 -10 17.335938 -9.359375 17.140625 -8.859375 C 16.941406 -8.367188 16.644531 -8.023438 16.25 -7.828125 C 15.851562 -7.628906 15.488281 -7.5 15.15625 -7.4375 C 14.832031 -7.375 14.394531 -7.34375 13.84375 -7.34375 L 6.71875 -7.34375 L 6.71875 -7.125 C 6.71875 -6.21875 7.0625 -5.484375 7.75 -4.921875 C 8.445312 -4.367188 9.359375 -4.09375 10.484375 -4.09375 C 11.347656 -4.09375 12.253906 -4.320312 13.203125 -4.78125 C 14.148438 -5.238281 14.785156 -5.46875 15.109375 -5.46875 C 15.722656 -5.46875 16.226562 -5.175781 16.625 -4.59375 C 17.019531 -4.019531 17.21875 -3.472656 17.21875 -2.953125 C 17.21875 -2.191406 16.554688 -1.445312 15.234375 -0.71875 C 13.921875 0.0078125 12.289062 0.375 10.34375 0.375 C 7.582031 0.375 5.332031 -0.34375 3.59375 -1.78125 C 1.863281 -3.226562 1 -5.125 1 -7.46875 Z M 6.71875 -10.5625 L 11.296875 -10.5625 C 11.816406 -10.5625 12.078125 -10.859375 12.078125 -11.453125 C 12.078125 -12.140625 11.8125 -12.679688 11.28125 -13.078125 C 10.75 -13.472656 10.113281 -13.671875 9.375 -13.671875 C 8.664062 -13.671875 8.046875 -13.472656 7.515625 -13.078125 C 6.984375 -12.679688 6.71875 -12.140625 6.71875 -11.453125 Z M 6.71875 -10.5625 "/></g></g></g><g fill="#432f23" fill-opacity="1"><g transform="translate(55.833518, 165.324571)"><g><path d="M 1.59375 -6.25 L 1.59375 -23.5 C 1.59375 -23.988281 1.882812 -24.398438 2.46875 -24.734375 C 3.0625 -25.066406 3.71875 -25.234375 4.4375 -25.234375 C 5.195312 -25.234375 5.863281 -25.066406 6.4375 -24.734375 C 7.019531 -24.398438 7.3125 -23.988281 7.3125 -23.5 L 7.3125 -17.578125 L 11.484375 -17.578125 C 11.929688 -17.578125 12.273438 -17.375 12.515625 -16.96875 C 12.765625 -16.5625 12.890625 -16.085938 12.890625 -15.546875 C 12.890625 -14.984375 12.765625 -14.503906 12.515625 -14.109375 C 12.273438 -13.710938 11.929688 -13.515625 11.484375 -13.515625 L 7.3125 -13.515625 L 7.3125 -6.25 C 7.3125 -5.707031 7.421875 -5.328125 7.640625 -5.109375 C 7.867188 -4.898438 8.265625 -4.796875 8.828125 -4.796875 L 10.421875 -4.796875 C 11.203125 -4.796875 11.800781 -4.554688 12.21875 -4.078125 C 12.644531 -3.597656 12.859375 -3.039062 12.859375 -2.40625 C 12.859375 -1.738281 12.644531 -1.171875 12.21875 -0.703125 C 11.800781 -0.234375 11.203125 0 10.421875 0 L 8.828125 0 C 4.003906 0 1.59375 -2.082031 1.59375 -6.25 Z M 1.59375 -6.25 "/></g></g></g><g fill="#432f23" fill-opacity="1"><g transform="translate(69.27669, 165.324571)"><g/></g></g><g fill="#432f23" fill-opacity="1"><g transform="translate(76.663045, 165.324571)"><g><path d="M 0.703125 -4.4375 C 0.703125 -5.125 0.953125 -5.8125 1.453125 -6.5 C 1.960938 -7.1875 2.550781 -7.53125 3.21875 -7.53125 C 3.582031 -7.53125 3.992188 -7.390625 4.453125 -7.109375 C 4.910156 -6.828125 5.328125 -6.515625 5.703125 -6.171875 C 6.085938 -5.828125 6.625 -5.507812 7.3125 -5.21875 C 8 -4.9375 8.726562 -4.796875 9.5 -4.796875 C 10.457031 -4.796875 11.289062 -5 12 -5.40625 C 12.71875 -5.8125 13.078125 -6.421875 13.078125 -7.234375 C 13.078125 -8.046875 12.675781 -8.757812 11.875 -9.375 C 11.070312 -10 10.097656 -10.5625 8.953125 -11.0625 C 7.804688 -11.5625 6.65625 -12.125 5.5 -12.75 C 4.34375 -13.382812 3.363281 -14.28125 2.5625 -15.4375 C 1.757812 -16.59375 1.359375 -17.972656 1.359375 -19.578125 C 1.359375 -22.140625 2.28125 -24.050781 4.125 -25.3125 C 5.976562 -26.582031 8.210938 -27.21875 10.828125 -27.21875 C 11.460938 -27.21875 12.128906 -27.179688 12.828125 -27.109375 C 13.535156 -27.035156 14.328125 -26.894531 15.203125 -26.6875 C 16.078125 -26.476562 16.789062 -26.140625 17.34375 -25.671875 C 17.894531 -25.203125 18.171875 -24.632812 18.171875 -23.96875 C 18.171875 -23.332031 17.96875 -22.664062 17.5625 -21.96875 C 17.15625 -21.28125 16.597656 -20.9375 15.890625 -20.9375 C 15.585938 -20.9375 14.957031 -21.171875 14 -21.640625 C 13.039062 -22.109375 11.984375 -22.34375 10.828125 -22.34375 C 9.585938 -22.34375 8.660156 -22.125 8.046875 -21.6875 C 7.429688 -21.257812 7.125 -20.738281 7.125 -20.125 C 7.125 -19.5625 7.410156 -19.046875 7.984375 -18.578125 C 8.566406 -18.109375 9.289062 -17.707031 10.15625 -17.375 C 11.019531 -17.039062 11.960938 -16.609375 12.984375 -16.078125 C 14.003906 -15.554688 14.945312 -14.976562 15.8125 -14.34375 C 16.675781 -13.71875 17.394531 -12.835938 17.96875 -11.703125 C 18.550781 -10.578125 18.84375 -9.285156 18.84375 -7.828125 C 18.84375 -5.242188 17.988281 -3.226562 16.28125 -1.78125 C 14.582031 -0.34375 12.359375 0.375 9.609375 0.375 C 7.210938 0.375 5.128906 -0.113281 3.359375 -1.09375 C 1.585938 -2.082031 0.703125 -3.195312 0.703125 -4.4375 Z M 0.703125 -4.4375 "/></g></g></g><g fill="#432f23" fill-opacity="1"><g transform="translate(96.347683, 165.324571)"><g><path d="M 1.59375 -6.25 L 1.59375 -23.5 C 1.59375 -23.988281 1.882812 -24.398438 2.46875 -24.734375 C 3.0625 -25.066406 3.71875 -25.234375 4.4375 -25.234375 C 5.195312 -25.234375 5.863281 -25.066406 6.4375 -24.734375 C 7.019531 -24.398438 7.3125 -23.988281 7.3125 -23.5 L 7.3125 -17.578125 L 11.484375 -17.578125 C 11.929688 -17.578125 12.273438 -17.375 12.515625 -16.96875 C 12.765625 -16.5625 12.890625 -16.085938 12.890625 -15.546875 C 12.890625 -14.984375 12.765625 -14.503906 12.515625 -14.109375 C 12.273438 -13.710938 11.929688 -13.515625 11.484375 -13.515625 L 7.3125 -13.515625 L 7.3125 -6.25 C 7.3125 -5.707031 7.421875 -5.328125 7.640625 -5.109375 C 7.867188 -4.898438 8.265625 -4.796875 8.828125 -4.796875 L 10.421875 -4.796875 C 11.203125 -4.796875 11.800781 -4.554688 12.21875 -4.078125 C 12.644531 -3.597656 12.859375 -3.039062 12.859375 -2.40625 C 12.859375 -1.738281 12.644531 -1.171875 12.21875 -0.703125 C 11.800781 -0.234375 11.203125 0 10.421875 0 L 8.828125 0 C 4.003906 0 1.59375 -2.082031 1.59375 -6.25 Z M 1.59375 -6.25 "/></g></g></g><g fill="#432f23" fill-opacity="1"><g transform="translate(109.790855, 165.324571)"><g><path d="M 1 -7.46875 L 1 -10.046875 C 1 -12.140625 1.820312 -13.953125 3.46875 -15.484375 C 5.125 -17.023438 7.09375 -17.796875 9.375 -17.796875 C 11.644531 -17.796875 13.613281 -17.03125 15.28125 -15.5 C 16.957031 -13.976562 17.796875 -12.160156 17.796875 -10.046875 L 17.796875 -7.46875 C 17.796875 -5.394531 16.953125 -3.566406 15.265625 -1.984375 C 13.585938 -0.410156 11.625 0.375 9.375 0.375 C 7.132812 0.375 5.175781 -0.410156 3.5 -1.984375 C 1.832031 -3.566406 1 -5.394531 1 -7.46875 Z M 6.71875 -7.46875 C 6.71875 -6.726562 6.976562 -6.066406 7.5 -5.484375 C 8.019531 -4.898438 8.644531 -4.609375 9.375 -4.609375 C 10.113281 -4.609375 10.75 -4.898438 11.28125 -5.484375 C 11.8125 -6.066406 12.078125 -6.726562 12.078125 -7.46875 L 12.078125 -10.046875 C 12.078125 -10.765625 11.804688 -11.40625 11.265625 -11.96875 C 10.722656 -12.53125 10.09375 -12.8125 9.375 -12.8125 C 8.664062 -12.8125 8.046875 -12.53125 7.515625 -11.96875 C 6.984375 -11.40625 6.71875 -10.765625 6.71875 -10.046875 Z M 6.71875 -7.46875 "/></g></g></g><g fill="#432f23" fill-opacity="1"><g transform="translate(128.589135, 165.324571)"><g><path d="M 1.65625 -1.765625 L 1.65625 -15.84375 C 1.65625 -16.363281 1.921875 -16.78125 2.453125 -17.09375 C 2.984375 -17.414062 3.65625 -17.578125 4.46875 -17.578125 C 5.1875 -17.578125 5.789062 -17.414062 6.28125 -17.09375 C 6.769531 -16.78125 7.015625 -16.363281 7.015625 -15.84375 L 7.015625 -14.484375 C 7.410156 -15.367188 8.019531 -16.140625 8.84375 -16.796875 C 9.664062 -17.460938 10.519531 -17.796875 11.40625 -17.796875 L 12.484375 -17.796875 C 13.023438 -17.796875 13.5 -17.550781 13.90625 -17.0625 C 14.3125 -16.570312 14.515625 -15.992188 14.515625 -15.328125 C 14.515625 -14.640625 14.3125 -14.046875 13.90625 -13.546875 C 13.5 -13.054688 13.023438 -12.8125 12.484375 -12.8125 L 11.40625 -12.8125 C 10.351562 -12.8125 9.421875 -12.300781 8.609375 -11.28125 C 7.796875 -10.257812 7.390625 -8.9375 7.390625 -7.3125 L 7.390625 -1.765625 C 7.390625 -1.328125 7.097656 -0.921875 6.515625 -0.546875 C 5.941406 -0.179688 5.257812 0 4.46875 0 C 3.675781 0 3.007812 -0.175781 2.46875 -0.53125 C 1.925781 -0.894531 1.65625 -1.304688 1.65625 -1.765625 Z M 1.65625 -1.765625 "/></g></g></g><g fill="#432f23" fill-opacity="1"><g transform="translate(143.140261, 165.324571)"><g><path d="M 1 -7.46875 L 1 -10.15625 C 1 -12.25 1.828125 -14.046875 3.484375 -15.546875 C 5.148438 -17.046875 7.15625 -17.796875 9.5 -17.796875 C 11.6875 -17.796875 13.554688 -17.132812 15.109375 -15.8125 C 16.660156 -14.5 17.4375 -12.820312 17.4375 -10.78125 C 17.4375 -10 17.335938 -9.359375 17.140625 -8.859375 C 16.941406 -8.367188 16.644531 -8.023438 16.25 -7.828125 C 15.851562 -7.628906 15.488281 -7.5 15.15625 -7.4375 C 14.832031 -7.375 14.394531 -7.34375 13.84375 -7.34375 L 6.71875 -7.34375 L 6.71875 -7.125 C 6.71875 -6.21875 7.0625 -5.484375 7.75 -4.921875 C 8.445312 -4.367188 9.359375 -4.09375 10.484375 -4.09375 C 11.347656 -4.09375 12.253906 -4.320312 13.203125 -4.78125 C 14.148438 -5.238281 14.785156 -5.46875 15.109375 -5.46875 C 15.722656 -5.46875 16.226562 -5.175781 16.625 -4.59375 C 17.019531 -4.019531 17.21875 -3.472656 17.21875 -2.953125 C 17.21875 -2.191406 16.554688 -1.445312 15.234375 -0.71875 C 13.921875 0.0078125 12.289062 0.375 10.34375 0.375 C 7.582031 0.375 5.332031 -0.34375 3.59375 -1.78125 C 1.863281 -3.226562 1 -5.125 1 -7.46875 Z M 6.71875 -10.5625 L 11.296875 -10.5625 C 11.816406 -10.5625 12.078125 -10.859375 12.078125 -11.453125 C 12.078125 -12.140625 11.8125 -12.679688 11.28125 -13.078125 C 10.75 -13.472656 10.113281 -13.671875 9.375 -13.671875 C 8.664062 -13.671875 8.046875 -13.472656 7.515625 -13.078125 C 6.984375 -12.679688 6.71875 -12.140625 6.71875 -11.453125 Z M 6.71875 -10.5625 "/></g></g></g><g fill="#432f23" fill-opacity="1"><g transform="translate(161.458427, 165.324571)"><g><path d="M 0.78125 -3.03125 C 0.78125 -3.539062 0.960938 -4.085938 1.328125 -4.671875 C 1.703125 -5.253906 2.144531 -5.546875 2.65625 -5.546875 C 2.957031 -5.546875 3.320312 -5.410156 3.75 -5.140625 C 4.175781 -4.867188 4.71875 -4.585938 5.375 -4.296875 C 6.03125 -4.015625 6.785156 -3.875 7.640625 -3.875 C 9.171875 -3.875 9.9375 -4.28125 9.9375 -5.09375 C 9.9375 -5.539062 9.640625 -5.90625 9.046875 -6.1875 C 8.453125 -6.46875 7.726562 -6.707031 6.875 -6.90625 C 6.03125 -7.101562 5.179688 -7.359375 4.328125 -7.671875 C 3.484375 -7.992188 2.765625 -8.523438 2.171875 -9.265625 C 1.585938 -10.003906 1.296875 -10.953125 1.296875 -12.109375 C 1.296875 -13.691406 1.847656 -15.035156 2.953125 -16.140625 C 4.054688 -17.242188 5.816406 -17.796875 8.234375 -17.796875 C 9.890625 -17.796875 11.347656 -17.546875 12.609375 -17.046875 C 13.878906 -16.546875 14.515625 -15.910156 14.515625 -15.140625 C 14.515625 -14.648438 14.316406 -14.078125 13.921875 -13.421875 C 13.523438 -12.773438 13.035156 -12.453125 12.453125 -12.453125 C 12.203125 -12.453125 11.632812 -12.632812 10.75 -13 C 9.863281 -13.375 9.050781 -13.5625 8.3125 -13.5625 C 7.625 -13.5625 7.097656 -13.441406 6.734375 -13.203125 C 6.378906 -12.972656 6.203125 -12.695312 6.203125 -12.375 C 6.203125 -12 6.503906 -11.703125 7.109375 -11.484375 C 7.710938 -11.265625 8.4375 -11.050781 9.28125 -10.84375 C 10.132812 -10.632812 10.984375 -10.363281 11.828125 -10.03125 C 12.679688 -9.695312 13.410156 -9.128906 14.015625 -8.328125 C 14.617188 -7.523438 14.921875 -6.519531 14.921875 -5.3125 C 14.921875 -3.539062 14.296875 -2.148438 13.046875 -1.140625 C 11.804688 -0.128906 10.054688 0.375 7.796875 0.375 C 5.867188 0.375 4.21875 0.0351562 2.84375 -0.640625 C 1.46875 -1.316406 0.78125 -2.113281 0.78125 -3.03125 Z M 0.78125 -3.03125 "/></g></g></g></svg>