<svg xmlns="http://www.w3.org/2000/svg" xmlns:xlink="http://www.w3.org/1999/xlink" width="200" zoomAndPan="magnify" viewBox="0 0 150 149.999998" height="200" preserveAspectRatio="xMidYMid meet" version="1.0"><defs><g/><clipPath id="e29aa4ee69"><path d="M 84.414062 58.78125 L 96.621094 58.78125 L 96.621094 71.167969 L 84.414062 71.167969 Z M 84.414062 58.78125 " clip-rule="nonzero"/></clipPath><clipPath id="9f6c72c8b5"><path d="M 64.007812 65.132812 L 85.085938 65.132812 L 85.085938 82.75 L 64.007812 82.75 Z M 64.007812 65.132812 " clip-rule="nonzero"/></clipPath></defs><path stroke-linecap="butt" transform="matrix(0.346929, -0.200299, 0.200243, 0.346831, 37.130144, 57.634803)" fill="none" stroke-linejoin="miter" d="M 0.00535202 4.997981 L 110.977321 5.001056 " stroke="#ffe4c0" stroke-width="10" stroke-opacity="1" stroke-miterlimit="4"/><path stroke-linecap="butt" transform="matrix(-0.347909, -0.200865, 0.200243, -0.346831, 112.19002, 61.03784)" fill="none" stroke-linejoin="miter" d="M -0.0016166 4.998043 L 110.671125 4.998541 " stroke="#ffe4c0" stroke-width="10" stroke-opacity="1" stroke-miterlimit="4"/><path stroke-linecap="butt" transform="matrix(0.000000000000000025, -0.401742, 0.400486, 0.000000000000000025, 44.128614, 53.835805)" fill="none" stroke-linejoin="miter" d="M -0.000329168 9.003459 L 19.942133 9.003459 " stroke="#ffe4c0" stroke-width="18" stroke-opacity="1" stroke-miterlimit="4"/><path fill="#ffe4c0" d="M 67.222656 50.1875 C 75.230469 49.066406 75.878906 63.390625 68.46875 63.042969 C 62.507812 62.765625 60.261719 51.164062 67.222656 50.1875 " fill-opacity="1" fill-rule="evenodd"/><path fill="#ffe4c0" d="M 80.09375 50.1875 C 88.914062 48.265625 87.882812 63.914062 79.679688 63.042969 C 73.183594 62.355469 74.449219 51.417969 80.09375 50.1875 " fill-opacity="1" fill-rule="evenodd"/><path fill="#ffe4c0" d="M 64.316406 67.398438 C 61.179688 74.238281 51.621094 69.40625 52.6875 62.628906 C 53.816406 55.492188 66.597656 59.128906 64.316406 67.398438 " fill-opacity="1" fill-rule="evenodd"/><g clip-path="url(#e29aa4ee69)"><path fill="#ffe4c0" d="M 90.265625 58.898438 C 92.332031 58.5 94.910156 59.230469 95.871094 60.96875 C 98.527344 65.773438 93.632812 71.640625 88.8125 71.132812 C 86.167969 70.855469 84.636719 68.601562 84.453125 66.570312 C 84.058594 62.214844 87.171875 59.496094 90.265625 58.898438 " fill-opacity="1" fill-rule="evenodd"/></g><g clip-path="url(#9f6c72c8b5)"><path fill="#ffe4c0" d="M 72.410156 65.324219 C 79.6875 64.070312 86.363281 69.308594 84.867188 78.183594 C 84.558594 80.019531 82.976562 82.617188 80.714844 82.746094 C 78.890625 82.847656 76.757812 81.074219 74.488281 81.085938 C 71.667969 81.097656 69.445312 83.597656 66.804688 82.332031 C 64.589844 81.265625 63.691406 76.960938 64.109375 73.828125 C 64.703125 69.3125 68.027344 66.082031 72.410156 65.324219 " fill-opacity="1" fill-rule="evenodd"/></g><g fill="#ffe4c0" fill-opacity="1"><g transform="translate(43.458658, 100.873505)"><g><path d="M 0.796875 -0.703125 L 0.796875 -10.125 C 0.796875 -10.3125 0.875 -10.472656 1.03125 -10.609375 C 1.1875 -10.742188 1.394531 -10.8125 1.65625 -10.8125 L 4.71875 -10.8125 C 5.769531 -10.8125 6.613281 -10.535156 7.25 -9.984375 C 7.894531 -9.441406 8.21875 -8.582031 8.21875 -7.40625 L 8.21875 -7.34375 C 8.21875 -6.164062 7.882812 -5.296875 7.21875 -4.734375 C 6.550781 -4.179688 5.671875 -3.90625 4.578125 -3.90625 L 3.109375 -3.90625 L 3.109375 -0.703125 C 3.109375 -0.484375 2.992188 -0.3125 2.765625 -0.1875 C 2.535156 -0.0625 2.265625 0 1.953125 0 C 1.640625 0 1.367188 -0.0625 1.140625 -0.1875 C 0.910156 -0.3125 0.796875 -0.484375 0.796875 -0.703125 Z M 3.109375 -5.6875 L 4.578125 -5.6875 C 5.460938 -5.6875 5.90625 -6.175781 5.90625 -7.15625 L 5.90625 -7.328125 C 5.90625 -8.304688 5.460938 -8.796875 4.578125 -8.796875 L 3.109375 -8.796875 Z M 3.109375 -5.6875 "/></g></g></g><g fill="#ffe4c0" fill-opacity="1"><g transform="translate(51.875539, 100.873505)"><g><path d="M 0.40625 -2.984375 L 0.40625 -4.0625 C 0.40625 -4.90625 0.734375 -5.625 1.390625 -6.21875 C 2.054688 -6.820312 2.859375 -7.125 3.796875 -7.125 C 4.679688 -7.125 5.429688 -6.859375 6.046875 -6.328125 C 6.671875 -5.804688 6.984375 -5.140625 6.984375 -4.328125 C 6.984375 -4.003906 6.941406 -3.742188 6.859375 -3.546875 C 6.785156 -3.347656 6.671875 -3.207031 6.515625 -3.125 C 6.359375 -3.050781 6.210938 -3 6.078125 -2.96875 C 5.941406 -2.945312 5.765625 -2.9375 5.546875 -2.9375 L 2.6875 -2.9375 L 2.6875 -2.859375 C 2.6875 -2.492188 2.820312 -2.195312 3.09375 -1.96875 C 3.375 -1.75 3.742188 -1.640625 4.203125 -1.640625 C 4.546875 -1.640625 4.90625 -1.726562 5.28125 -1.90625 C 5.664062 -2.09375 5.921875 -2.1875 6.046875 -2.1875 C 6.296875 -2.1875 6.5 -2.070312 6.65625 -1.84375 C 6.8125 -1.613281 6.890625 -1.394531 6.890625 -1.1875 C 6.890625 -0.875 6.625 -0.570312 6.09375 -0.28125 C 5.570312 0 4.921875 0.140625 4.140625 0.140625 C 3.035156 0.140625 2.132812 -0.144531 1.4375 -0.71875 C 0.75 -1.289062 0.40625 -2.046875 0.40625 -2.984375 Z M 2.6875 -4.234375 L 4.53125 -4.234375 C 4.738281 -4.234375 4.84375 -4.351562 4.84375 -4.59375 C 4.84375 -4.863281 4.734375 -5.078125 4.515625 -5.234375 C 4.304688 -5.390625 4.054688 -5.46875 3.765625 -5.46875 C 3.472656 -5.46875 3.21875 -5.390625 3 -5.234375 C 2.789062 -5.078125 2.6875 -4.863281 2.6875 -4.59375 Z M 2.6875 -4.234375 "/></g></g></g><g fill="#ffe4c0" fill-opacity="1"><g transform="translate(59.212575, 100.873505)"><g><path d="M 0.640625 -2.5 L 0.640625 -9.40625 C 0.640625 -9.601562 0.753906 -9.769531 0.984375 -9.90625 C 1.222656 -10.039062 1.488281 -10.109375 1.78125 -10.109375 C 2.082031 -10.109375 2.347656 -10.039062 2.578125 -9.90625 C 2.816406 -9.769531 2.9375 -9.601562 2.9375 -9.40625 L 2.9375 -7.046875 L 4.609375 -7.046875 C 4.785156 -7.046875 4.921875 -6.960938 5.015625 -6.796875 C 5.117188 -6.640625 5.171875 -6.453125 5.171875 -6.234375 C 5.171875 -6.003906 5.117188 -5.8125 5.015625 -5.65625 C 4.921875 -5.5 4.785156 -5.421875 4.609375 -5.421875 L 2.9375 -5.421875 L 2.9375 -2.5 C 2.9375 -2.28125 2.976562 -2.128906 3.0625 -2.046875 C 3.15625 -1.960938 3.3125 -1.921875 3.53125 -1.921875 L 4.171875 -1.921875 C 4.484375 -1.921875 4.722656 -1.820312 4.890625 -1.625 C 5.066406 -1.4375 5.15625 -1.21875 5.15625 -0.96875 C 5.15625 -0.695312 5.066406 -0.46875 4.890625 -0.28125 C 4.722656 -0.09375 4.484375 0 4.171875 0 L 3.53125 0 C 1.601562 0 0.640625 -0.832031 0.640625 -2.5 Z M 0.640625 -2.5 "/></g></g></g><g fill="#ffe4c0" fill-opacity="1"><g transform="translate(64.597013, 100.873505)"><g/></g></g><g fill="#ffe4c0" fill-opacity="1"><g transform="translate(67.555494, 100.873505)"><g><path d="M 0.28125 -1.78125 C 0.28125 -2.050781 0.378906 -2.320312 0.578125 -2.59375 C 0.785156 -2.875 1.019531 -3.015625 1.28125 -3.015625 C 1.4375 -3.015625 1.601562 -2.957031 1.78125 -2.84375 C 1.96875 -2.726562 2.132812 -2.601562 2.28125 -2.46875 C 2.4375 -2.332031 2.648438 -2.207031 2.921875 -2.09375 C 3.203125 -1.976562 3.492188 -1.921875 3.796875 -1.921875 C 4.179688 -1.921875 4.515625 -2 4.796875 -2.15625 C 5.085938 -2.320312 5.234375 -2.566406 5.234375 -2.890625 C 5.234375 -3.222656 5.070312 -3.507812 4.75 -3.75 C 4.4375 -4 4.050781 -4.222656 3.59375 -4.421875 C 3.132812 -4.628906 2.671875 -4.859375 2.203125 -5.109375 C 1.742188 -5.359375 1.351562 -5.710938 1.03125 -6.171875 C 0.707031 -6.640625 0.546875 -7.195312 0.546875 -7.84375 C 0.546875 -8.863281 0.914062 -9.628906 1.65625 -10.140625 C 2.394531 -10.648438 3.285156 -10.90625 4.328125 -10.90625 C 4.585938 -10.90625 4.859375 -10.890625 5.140625 -10.859375 C 5.421875 -10.828125 5.734375 -10.769531 6.078125 -10.6875 C 6.429688 -10.601562 6.71875 -10.46875 6.9375 -10.28125 C 7.164062 -10.09375 7.28125 -9.867188 7.28125 -9.609375 C 7.28125 -9.347656 7.195312 -9.078125 7.03125 -8.796875 C 6.875 -8.523438 6.648438 -8.390625 6.359375 -8.390625 C 6.242188 -8.390625 5.992188 -8.484375 5.609375 -8.671875 C 5.222656 -8.859375 4.796875 -8.953125 4.328125 -8.953125 C 3.835938 -8.953125 3.46875 -8.863281 3.21875 -8.6875 C 2.976562 -8.519531 2.859375 -8.3125 2.859375 -8.0625 C 2.859375 -7.832031 2.972656 -7.625 3.203125 -7.4375 C 3.429688 -7.25 3.71875 -7.085938 4.0625 -6.953125 C 4.414062 -6.828125 4.796875 -6.65625 5.203125 -6.4375 C 5.609375 -6.226562 5.984375 -6 6.328125 -5.75 C 6.671875 -5.5 6.957031 -5.144531 7.1875 -4.6875 C 7.425781 -4.238281 7.546875 -3.722656 7.546875 -3.140625 C 7.546875 -2.097656 7.203125 -1.289062 6.515625 -0.71875 C 5.835938 -0.144531 4.945312 0.140625 3.84375 0.140625 C 2.882812 0.140625 2.050781 -0.0507812 1.34375 -0.4375 C 0.632812 -0.832031 0.28125 -1.28125 0.28125 -1.78125 Z M 0.28125 -1.78125 "/></g></g></g><g fill="#ffe4c0" fill-opacity="1"><g transform="translate(75.439846, 100.873505)"><g><path d="M 0.640625 -2.5 L 0.640625 -9.40625 C 0.640625 -9.601562 0.753906 -9.769531 0.984375 -9.90625 C 1.222656 -10.039062 1.488281 -10.109375 1.78125 -10.109375 C 2.082031 -10.109375 2.347656 -10.039062 2.578125 -9.90625 C 2.816406 -9.769531 2.9375 -9.601562 2.9375 -9.40625 L 2.9375 -7.046875 L 4.609375 -7.046875 C 4.785156 -7.046875 4.921875 -6.960938 5.015625 -6.796875 C 5.117188 -6.640625 5.171875 -6.453125 5.171875 -6.234375 C 5.171875 -6.003906 5.117188 -5.8125 5.015625 -5.65625 C 4.921875 -5.5 4.785156 -5.421875 4.609375 -5.421875 L 2.9375 -5.421875 L 2.9375 -2.5 C 2.9375 -2.28125 2.976562 -2.128906 3.0625 -2.046875 C 3.15625 -1.960938 3.3125 -1.921875 3.53125 -1.921875 L 4.171875 -1.921875 C 4.484375 -1.921875 4.722656 -1.820312 4.890625 -1.625 C 5.066406 -1.4375 5.15625 -1.21875 5.15625 -0.96875 C 5.15625 -0.695312 5.066406 -0.46875 4.890625 -0.28125 C 4.722656 -0.09375 4.484375 0 4.171875 0 L 3.53125 0 C 1.601562 0 0.640625 -0.832031 0.640625 -2.5 Z M 0.640625 -2.5 "/></g></g></g><g fill="#ffe4c0" fill-opacity="1"><g transform="translate(80.824284, 100.873505)"><g><path d="M 0.40625 -2.984375 L 0.40625 -4.03125 C 0.40625 -4.863281 0.734375 -5.585938 1.390625 -6.203125 C 2.046875 -6.816406 2.835938 -7.125 3.765625 -7.125 C 4.671875 -7.125 5.457031 -6.816406 6.125 -6.203125 C 6.789062 -5.597656 7.125 -4.875 7.125 -4.03125 L 7.125 -2.984375 C 7.125 -2.160156 6.785156 -1.429688 6.109375 -0.796875 C 5.441406 -0.171875 4.65625 0.140625 3.75 0.140625 C 2.851562 0.140625 2.070312 -0.171875 1.40625 -0.796875 C 0.738281 -1.429688 0.40625 -2.160156 0.40625 -2.984375 Z M 2.6875 -2.984375 C 2.6875 -2.691406 2.789062 -2.425781 3 -2.1875 C 3.207031 -1.957031 3.457031 -1.84375 3.75 -1.84375 C 4.050781 -1.84375 4.304688 -1.957031 4.515625 -2.1875 C 4.734375 -2.425781 4.84375 -2.691406 4.84375 -2.984375 L 4.84375 -4.03125 C 4.84375 -4.3125 4.734375 -4.566406 4.515625 -4.796875 C 4.296875 -5.023438 4.039062 -5.140625 3.75 -5.140625 C 3.46875 -5.140625 3.21875 -5.023438 3 -4.796875 C 2.789062 -4.566406 2.6875 -4.3125 2.6875 -4.03125 Z M 2.6875 -2.984375 "/></g></g></g><g fill="#ffe4c0" fill-opacity="1"><g transform="translate(88.353621, 100.873505)"><g><path d="M 0.671875 -0.703125 L 0.671875 -6.34375 C 0.671875 -6.550781 0.773438 -6.71875 0.984375 -6.84375 C 1.191406 -6.976562 1.460938 -7.046875 1.796875 -7.046875 C 2.078125 -7.046875 2.316406 -6.976562 2.515625 -6.84375 C 2.710938 -6.71875 2.8125 -6.550781 2.8125 -6.34375 L 2.8125 -5.796875 C 2.96875 -6.148438 3.210938 -6.457031 3.546875 -6.71875 C 3.878906 -6.988281 4.222656 -7.125 4.578125 -7.125 L 5 -7.125 C 5.21875 -7.125 5.40625 -7.023438 5.5625 -6.828125 C 5.726562 -6.640625 5.8125 -6.410156 5.8125 -6.140625 C 5.8125 -5.859375 5.726562 -5.617188 5.5625 -5.421875 C 5.40625 -5.234375 5.21875 -5.140625 5 -5.140625 L 4.578125 -5.140625 C 4.148438 -5.140625 3.769531 -4.929688 3.4375 -4.515625 C 3.113281 -4.109375 2.953125 -3.582031 2.953125 -2.9375 L 2.953125 -0.703125 C 2.953125 -0.523438 2.835938 -0.363281 2.609375 -0.21875 C 2.378906 -0.0703125 2.101562 0 1.78125 0 C 1.46875 0 1.203125 -0.0664062 0.984375 -0.203125 C 0.773438 -0.347656 0.671875 -0.515625 0.671875 -0.703125 Z M 0.671875 -0.703125 "/></g></g></g><g fill="#ffe4c0" fill-opacity="1"><g transform="translate(94.181829, 100.873505)"><g><path d="M 0.40625 -2.984375 L 0.40625 -4.0625 C 0.40625 -4.90625 0.734375 -5.625 1.390625 -6.21875 C 2.054688 -6.820312 2.859375 -7.125 3.796875 -7.125 C 4.679688 -7.125 5.429688 -6.859375 6.046875 -6.328125 C 6.671875 -5.804688 6.984375 -5.140625 6.984375 -4.328125 C 6.984375 -4.003906 6.941406 -3.742188 6.859375 -3.546875 C 6.785156 -3.347656 6.671875 -3.207031 6.515625 -3.125 C 6.359375 -3.050781 6.210938 -3 6.078125 -2.96875 C 5.941406 -2.945312 5.765625 -2.9375 5.546875 -2.9375 L 2.6875 -2.9375 L 2.6875 -2.859375 C 2.6875 -2.492188 2.820312 -2.195312 3.09375 -1.96875 C 3.375 -1.75 3.742188 -1.640625 4.203125 -1.640625 C 4.546875 -1.640625 4.90625 -1.726562 5.28125 -1.90625 C 5.664062 -2.09375 5.921875 -2.1875 6.046875 -2.1875 C 6.296875 -2.1875 6.5 -2.070312 6.65625 -1.84375 C 6.8125 -1.613281 6.890625 -1.394531 6.890625 -1.1875 C 6.890625 -0.875 6.625 -0.570312 6.09375 -0.28125 C 5.570312 0 4.921875 0.140625 4.140625 0.140625 C 3.035156 0.140625 2.132812 -0.144531 1.4375 -0.71875 C 0.75 -1.289062 0.40625 -2.046875 0.40625 -2.984375 Z M 2.6875 -4.234375 L 4.53125 -4.234375 C 4.738281 -4.234375 4.84375 -4.351562 4.84375 -4.59375 C 4.84375 -4.863281 4.734375 -5.078125 4.515625 -5.234375 C 4.304688 -5.390625 4.054688 -5.46875 3.765625 -5.46875 C 3.472656 -5.46875 3.21875 -5.390625 3 -5.234375 C 2.789062 -5.078125 2.6875 -4.863281 2.6875 -4.59375 Z M 2.6875 -4.234375 "/></g></g></g><g fill="#ffe4c0" fill-opacity="1"><g transform="translate(101.518865, 100.873505)"><g><path d="M 0.3125 -1.21875 C 0.3125 -1.425781 0.382812 -1.644531 0.53125 -1.875 C 0.675781 -2.101562 0.851562 -2.21875 1.0625 -2.21875 C 1.1875 -2.21875 1.332031 -2.160156 1.5 -2.046875 C 1.675781 -1.941406 1.894531 -1.832031 2.15625 -1.71875 C 2.414062 -1.601562 2.71875 -1.546875 3.0625 -1.546875 C 3.675781 -1.546875 3.984375 -1.710938 3.984375 -2.046875 C 3.984375 -2.222656 3.863281 -2.367188 3.625 -2.484375 C 3.382812 -2.597656 3.09375 -2.691406 2.75 -2.765625 C 2.414062 -2.847656 2.078125 -2.953125 1.734375 -3.078125 C 1.398438 -3.203125 1.113281 -3.410156 0.875 -3.703125 C 0.632812 -4.003906 0.515625 -4.390625 0.515625 -4.859375 C 0.515625 -5.484375 0.734375 -6.015625 1.171875 -6.453125 C 1.617188 -6.898438 2.328125 -7.125 3.296875 -7.125 C 3.960938 -7.125 4.546875 -7.023438 5.046875 -6.828125 C 5.554688 -6.628906 5.8125 -6.375 5.8125 -6.0625 C 5.8125 -5.863281 5.734375 -5.632812 5.578125 -5.375 C 5.421875 -5.113281 5.222656 -4.984375 4.984375 -4.984375 C 4.890625 -4.984375 4.660156 -5.054688 4.296875 -5.203125 C 3.941406 -5.359375 3.617188 -5.4375 3.328125 -5.4375 C 3.054688 -5.4375 2.847656 -5.390625 2.703125 -5.296875 C 2.554688 -5.203125 2.484375 -5.085938 2.484375 -4.953125 C 2.484375 -4.804688 2.601562 -4.6875 2.84375 -4.59375 C 3.09375 -4.507812 3.382812 -4.425781 3.71875 -4.34375 C 4.0625 -4.257812 4.398438 -4.148438 4.734375 -4.015625 C 5.078125 -3.878906 5.367188 -3.648438 5.609375 -3.328125 C 5.859375 -3.015625 5.984375 -2.613281 5.984375 -2.125 C 5.984375 -1.414062 5.734375 -0.859375 5.234375 -0.453125 C 4.734375 -0.0546875 4.03125 0.140625 3.125 0.140625 C 2.351562 0.140625 1.691406 0.00390625 1.140625 -0.265625 C 0.585938 -0.535156 0.3125 -0.851562 0.3125 -1.21875 Z M 0.3125 -1.21875 "/></g></g></g></svg>